<svg width="111" height="22" viewBox="0 0 111 22" fill="none" xmlns="http://www.w3.org/2000/svg">
<path d="M14.505 2.04312L2.02415 13.1804C2.00879 13.1942 2 13.2138 2 13.2344V19.8401C2 19.9023 2.07333 19.9355 2.12002 19.8944L7.55715 15.1093C7.58557 15.0843 7.62847 15.0854 7.6555 15.1119L10.8777 18.271C10.9043 18.297 10.9462 18.2987 10.9747 18.2749L14.5068 15.3244C14.5337 15.3019 14.5729 15.302 14.5997 15.3246L18.0991 18.2744C18.1276 18.2985 18.1698 18.2969 18.1964 18.2707L21.4099 15.1123C21.437 15.0856 21.4802 15.0846 21.5086 15.1099L26.8797 19.8928C26.9263 19.9343 27 19.9013 27 19.8389V13.2342C27 13.2137 26.9913 13.1942 26.9761 13.1805L14.6015 2.04333C14.5741 2.01867 14.5325 2.01858 14.505 2.04312Z" stroke="#4A7EFB" stroke-width="3.02769"/>
<path d="M40.5667 18.6483C39.5358 18.6483 38.6037 18.4718 37.7705 18.1187C36.9515 17.7657 36.3019 17.2573 35.8217 16.5935C35.3416 15.9298 35.0944 15.146 35.0803 14.2422H38.2578C38.3001 14.8495 38.5119 15.3296 38.8932 15.6827C39.2887 16.0357 39.8253 16.2123 40.5031 16.2123C41.1951 16.2123 41.7388 16.0498 42.1342 15.725C42.5296 15.3861 42.7273 14.9483 42.7273 14.4117C42.7273 13.9739 42.5932 13.6138 42.3249 13.3314C42.0565 13.0489 41.7176 12.8301 41.3081 12.6747C40.9127 12.5053 40.3619 12.3217 39.6558 12.124C38.6955 11.8415 37.9118 11.5661 37.3045 11.2978C36.7114 11.0154 36.196 10.5988 35.7582 10.048C35.3345 9.48316 35.1227 8.7347 35.1227 7.80266C35.1227 6.9271 35.3416 6.16452 35.7794 5.51491C36.2171 4.8653 36.8314 4.37104 37.6223 4.03211C38.4131 3.67906 39.3169 3.50254 40.3337 3.50254C41.8588 3.50254 43.0945 3.87677 44.0407 4.62523C45.001 5.35957 45.5305 6.39047 45.6294 7.71793H42.3672C42.339 7.20954 42.1201 6.79294 41.7106 6.46814C41.3151 6.12921 40.7856 5.95975 40.1218 5.95975C39.5428 5.95975 39.0768 6.10803 38.7238 6.40459C38.3849 6.70115 38.2154 7.13187 38.2154 7.69674C38.2154 8.09216 38.3425 8.42402 38.5967 8.69234C38.865 8.94653 39.1898 9.15836 39.5711 9.32782C39.9665 9.48316 40.5173 9.66675 41.2234 9.87858C42.1836 10.161 42.9674 10.4435 43.5747 10.7259C44.1819 11.0083 44.7044 11.432 45.1422 11.9969C45.58 12.5617 45.7989 13.3031 45.7989 14.2211C45.7989 15.0119 45.5941 15.7462 45.1845 16.4241C44.775 17.1019 44.1748 17.6456 43.384 18.0552C42.5932 18.4506 41.6541 18.6483 40.5667 18.6483ZM51.8227 9.20073V14.8777C51.8227 15.2731 51.9145 15.5626 52.0981 15.7462C52.2958 15.9157 52.6206 16.0004 53.0725 16.0004H54.4494V18.5H52.5853C50.0857 18.5 48.8359 17.2855 48.8359 14.8565V9.20073H47.4379V6.7647H48.8359V3.86265H51.8227V6.7647H54.4494V9.20073H51.8227ZM67.4916 12.3782C67.4916 12.8018 67.4633 13.1831 67.4069 13.522H58.8278C58.8984 14.3693 59.195 15.0331 59.7175 15.5132C60.24 15.9934 60.8825 16.2334 61.6451 16.2334C62.7466 16.2334 63.5304 15.7604 63.9964 14.8142H67.195C66.8561 15.9439 66.2065 16.876 65.2462 17.6103C64.2859 18.3305 63.1067 18.6906 61.7087 18.6906C60.5789 18.6906 59.5621 18.4435 58.6583 17.9492C57.7687 17.4409 57.0696 16.7277 56.5612 15.8098C56.067 14.8919 55.8198 13.8327 55.8198 12.6323C55.8198 11.4179 56.067 10.3517 56.5612 9.43374C57.0555 8.51581 57.7475 7.80972 58.6371 7.31545C59.5268 6.82119 60.5507 6.57405 61.7087 6.57405C62.8243 6.57405 63.8199 6.81413 64.6954 7.29427C65.5851 7.77441 66.27 8.45933 66.7502 9.34901C67.2444 10.2246 67.4916 11.2343 67.4916 12.3782ZM64.4201 11.5308C64.4059 10.7683 64.1306 10.161 63.5939 9.70912C63.0573 9.24309 62.4006 9.01008 61.6239 9.01008C60.8896 9.01008 60.2682 9.23603 59.7598 9.68793C59.2656 10.1257 58.962 10.74 58.849 11.5308H64.4201ZM68.8936 12.59C68.8936 11.4037 69.1266 10.3517 69.5927 9.43374C70.0728 8.51581 70.7153 7.80972 71.5203 7.31545C72.3394 6.82119 73.2502 6.57405 74.2529 6.57405C75.1284 6.57405 75.891 6.75058 76.5406 7.10362C77.2044 7.45667 77.7339 7.90151 78.1293 8.43814V6.7647H81.1161V18.5H78.1293V16.7842C77.7481 17.3349 77.2185 17.7939 76.5406 18.1611C75.8769 18.5141 75.1073 18.6906 74.2317 18.6906C73.2432 18.6906 72.3394 18.4365 71.5203 17.9281C70.7153 17.4197 70.0728 16.7065 69.5927 15.7886C69.1266 14.8565 68.8936 13.7903 68.8936 12.59ZM78.1293 12.6323C78.1293 11.9121 77.9881 11.2978 77.7057 10.7894C77.4233 10.2669 77.042 9.87152 76.5618 9.6032C76.0817 9.32076 75.5662 9.17954 75.0155 9.17954C74.4647 9.17954 73.9563 9.3137 73.4903 9.58202C73.0243 9.85033 72.643 10.2457 72.3464 10.7683C72.064 11.2766 71.9228 11.8839 71.9228 12.59C71.9228 13.2961 72.064 13.9174 72.3464 14.4541C72.643 14.9766 73.0243 15.3791 73.4903 15.6615C73.9704 15.9439 74.4788 16.0852 75.0155 16.0852C75.5662 16.0852 76.0817 15.951 76.5618 15.6827C77.042 15.4002 77.4233 15.0048 77.7057 14.4964C77.9881 13.9739 78.1293 13.3526 78.1293 12.6323ZM86.9782 2.82469V18.5H84.0126V2.82469H86.9782ZM93.361 9.20073V14.8777C93.361 15.2731 93.4528 15.5626 93.6364 15.7462C93.8341 15.9157 94.1589 16.0004 94.6108 16.0004H95.9876V18.5H94.1236C91.624 18.5 90.3742 17.2855 90.3742 14.8565V9.20073H88.9761V6.7647H90.3742V3.86265H93.361V6.7647H95.9876V9.20073H93.361ZM104.73 6.59524C105.619 6.59524 106.41 6.79294 107.102 7.18836C107.794 7.56965 108.331 8.14158 108.712 8.90417C109.108 9.65263 109.305 10.5564 109.305 11.6156V18.5H106.34V12.018C106.34 11.086 106.107 10.3728 105.641 9.87858C105.175 9.37019 104.539 9.116 103.734 9.116C102.915 9.116 102.265 9.37019 101.785 9.87858C101.319 10.3728 101.086 11.086 101.086 12.018V18.5H98.1207V2.82469H101.086V8.22632C101.468 7.71793 101.976 7.32251 102.611 7.04008C103.247 6.74352 103.953 6.59524 104.73 6.59524Z" fill="#393939"/>
</svg>
