<svg width="109" height="23" viewBox="0 0 109 23" fill="none" xmlns="http://www.w3.org/2000/svg">
<path d="M17.084 3.45388L11.1428 15.0419V22H6.75385V15.0686L0.812665 3.45388H5.60308L9.02862 11.6163L12.4542 3.45388H17.084ZM27.543 17.8786C27.543 18.4139 27.6143 18.8064 27.7571 19.0562C27.9176 19.306 28.1674 19.4933 28.5064 19.6182L27.6232 22.3747C26.749 22.3033 26.0354 22.116 25.4823 21.8127C24.9292 21.4915 24.501 20.992 24.1977 20.314C23.27 21.7413 21.8426 22.455 19.9158 22.455C18.5063 22.455 17.3823 22.0446 16.5437 21.2239C15.7052 20.4032 15.2859 19.3327 15.2859 18.0125C15.2859 16.4603 15.8569 15.2738 16.9987 14.4531C18.1406 13.6324 19.7909 13.222 21.9497 13.222H23.3948V12.6065C23.3948 11.768 23.2164 11.197 22.8596 10.8937C22.5028 10.5726 21.8783 10.412 20.9863 10.412C20.5224 10.412 19.9604 10.4834 19.3002 10.6261C18.6401 10.751 17.9621 10.9294 17.2663 11.1614L16.3029 8.3781C17.195 8.03912 18.1049 7.78042 19.0326 7.602C19.9782 7.42359 20.8524 7.33438 21.6553 7.33438C23.6892 7.33438 25.179 7.75365 26.1246 8.5922C27.0702 9.43074 27.543 10.6886 27.543 12.3657V17.8786ZM21.1468 19.4308C22.1103 19.4308 22.8596 18.9759 23.3948 18.066V15.5503H22.3511C21.3877 15.5503 20.6651 15.7198 20.1834 16.0588C19.7195 16.3978 19.4876 16.9241 19.4876 17.6378C19.4876 18.2087 19.6303 18.6547 19.9158 18.9759C20.2191 19.2792 20.6294 19.4308 21.1468 19.4308ZM46.6204 7.33438C47.7444 7.33438 48.6453 7.71797 49.3233 8.48515C50.0013 9.23449 50.3403 10.2782 50.3403 11.6163V22H46.1119V12.3389C46.1119 11.0722 45.7104 10.4388 44.9076 10.4388C44.4615 10.4388 44.069 10.5904 43.73 10.8937C43.3911 11.197 43.061 11.6609 42.7398 12.2854V22H38.5114V12.3389C38.5114 11.0722 38.11 10.4388 37.3071 10.4388C36.879 10.4388 36.4864 10.5994 36.1296 10.9205C35.7906 11.2238 35.4606 11.6788 35.1394 12.2854V22H30.911V7.78934H34.6042L34.8986 9.44859C35.4516 8.73493 36.0583 8.20861 36.7184 7.86962C37.3964 7.5128 38.1635 7.33438 39.0199 7.33438C39.8228 7.33438 40.5097 7.53064 41.0806 7.92315C41.6694 8.31566 42.0976 8.86874 42.3652 9.5824C42.9361 8.81522 43.5606 8.25321 44.2385 7.89639C44.9343 7.52172 45.7283 7.33438 46.6204 7.33438ZM64.8112 17.8786C64.8112 18.4139 64.8826 18.8064 65.0253 19.0562C65.1859 19.306 65.4357 19.4933 65.7747 19.6182L64.8915 22.3747C64.0173 22.3033 63.3036 22.116 62.7506 21.8127C62.1975 21.4915 61.7693 20.992 61.466 20.314C60.5382 21.7413 59.1109 22.455 57.1841 22.455C55.7746 22.455 54.6506 22.0446 53.812 21.2239C52.9735 20.4032 52.5542 19.3327 52.5542 18.0125C52.5542 16.4603 53.1251 15.2738 54.267 14.4531C55.4088 13.6324 57.0592 13.222 59.218 13.222H60.6631V12.6065C60.6631 11.768 60.4847 11.197 60.1279 10.8937C59.7711 10.5726 59.1466 10.412 58.2545 10.412C57.7907 10.412 57.2287 10.4834 56.5685 10.6261C55.9084 10.751 55.2304 10.9294 54.5346 11.1614L53.5712 8.3781C54.4632 8.03912 55.3732 7.78042 56.3009 7.602C57.2465 7.42359 58.1207 7.33438 58.9236 7.33438C60.9575 7.33438 62.4473 7.75365 63.3929 8.5922C64.3384 9.43074 64.8112 10.6886 64.8112 12.3657V17.8786ZM58.4151 19.4308C59.3785 19.4308 60.1279 18.9759 60.6631 18.066V15.5503H59.6194C58.656 15.5503 57.9334 15.7198 57.4517 16.0588C56.9878 16.3978 56.7559 16.9241 56.7559 17.6378C56.7559 18.2087 56.8986 18.6547 57.1841 18.9759C57.4874 19.2792 57.8977 19.4308 58.4151 19.4308ZM72.4077 1.68758V22H68.1793V2.14254L72.4077 1.68758ZM81.1857 7.78934L76.877 14.0249L81.5336 22H76.7699L72.5415 14.239L76.877 7.78934H81.1857ZM84.7068 17.611C85.3669 17.611 85.9289 17.8519 86.3928 18.3336C86.8745 18.7975 87.1153 19.3595 87.1153 20.0196C87.1153 20.6976 86.8745 21.2774 86.3928 21.7591C85.9289 22.223 85.3669 22.455 84.7068 22.455C84.0288 22.455 83.4489 22.223 82.9672 21.7591C82.5033 21.2774 82.2714 20.6976 82.2714 20.0196C82.2714 19.3595 82.5033 18.7975 82.9672 18.3336C83.4489 17.8519 84.0288 17.611 84.7068 17.611ZM100.877 17.8786C100.877 18.4139 100.949 18.8064 101.091 19.0562C101.252 19.306 101.502 19.4933 101.841 19.6182L100.958 22.3747C100.083 22.3033 99.3697 22.116 98.8166 21.8127C98.2636 21.4915 97.8354 20.992 97.5321 20.314C96.6043 21.7413 95.177 22.455 93.2501 22.455C91.8407 22.455 90.7167 22.0446 89.8781 21.2239C89.0396 20.4032 88.6203 19.3327 88.6203 18.0125C88.6203 16.4603 89.1912 15.2738 90.3331 14.4531C91.4749 13.6324 93.1252 13.222 95.284 13.222H96.7292V12.6065C96.7292 11.768 96.5508 11.197 96.194 10.8937C95.8371 10.5726 95.2127 10.412 94.3206 10.412C93.8567 10.412 93.2947 10.4834 92.6346 10.6261C91.9745 10.751 91.2965 10.9294 90.6007 11.1614L89.6372 8.3781C90.5293 8.03912 91.4392 7.78042 92.367 7.602C93.3126 7.42359 94.1868 7.33438 94.9897 7.33438C97.0236 7.33438 98.5133 7.75365 99.4589 8.5922C100.405 9.43074 100.877 10.6886 100.877 12.3657V17.8786ZM94.4812 19.4308C95.4446 19.4308 96.194 18.9759 96.7292 18.066V15.5503H95.6855C94.722 15.5503 93.9995 15.7198 93.5178 16.0588C93.0539 16.3978 92.8219 16.9241 92.8219 17.6378C92.8219 18.2087 92.9647 18.6547 93.2501 18.9759C93.5534 19.2792 93.9638 19.4308 94.4812 19.4308ZM108.474 7.78934V22H104.245V7.78934H108.474ZM106.333 0.295956C107.064 0.295956 107.662 0.527894 108.126 0.99177C108.608 1.4378 108.848 2.00873 108.848 2.70454C108.848 3.40036 108.608 3.9802 108.126 4.44408C107.662 4.89011 107.064 5.11313 106.333 5.11313C105.601 5.11313 105.004 4.89011 104.54 4.44408C104.076 3.9802 103.844 3.40036 103.844 2.70454C103.844 2.00873 104.076 1.4378 104.54 0.99177C105.004 0.527894 105.601 0.295956 106.333 0.295956Z" fill="#1D1D1D"/>
</svg>
