<svg width="189" height="191" viewBox="0 0 189 191" fill="none" xmlns="http://www.w3.org/2000/svg">
<g id="Mask Group 2">
<path id="Ellipse 652" d="M94.5 188C146.415 188 188.5 145.915 188.5 94C188.5 42.0852 146.415 0 94.5 0C42.5852 0 0.5 42.0852 0.5 94C0.5 145.915 42.5852 188 94.5 188Z" fill="url(#paint0_linear_1015_2836)"/>
<g id="Group" filter="url(#filter0_d_1015_2836)">
<g id="Mask Group">
<mask id="mask0_1015_2836" style="mask-type:alpha" maskUnits="userSpaceOnUse" x="0" y="0" width="189" height="188">
<path id="Ellipse 653" d="M94.5 188C146.415 188 188.5 145.915 188.5 94C188.5 42.0852 146.415 0 94.5 0C42.5852 0 0.5 42.0852 0.5 94C0.5 145.915 42.5852 188 94.5 188Z" fill="url(#paint1_linear_1015_2836)"/>
</mask>
<g mask="url(#mask0_1015_2836)">
<path id="Rectangle 5615" d="M148.393 53.8933H40.6065C37.1455 53.8933 34.3398 56.699 34.3398 60.16V191.76C34.3398 195.221 37.1455 198.027 40.6065 198.027H148.393C151.854 198.027 154.66 195.221 154.66 191.76V60.16C154.66 56.699 151.854 53.8933 148.393 53.8933Z" fill="white"/>
</g>
</g>
</g>
<path id="Rectangle 5617" d="M83.2197 66.4268H50.633C48.5565 66.4268 46.873 68.1102 46.873 70.1868C46.873 72.2633 48.5565 73.9468 50.633 73.9468H83.2197C85.2963 73.9468 86.9797 72.2633 86.9797 70.1868C86.9797 68.1102 85.2963 66.4268 83.2197 66.4268Z" fill="#E1EBFA"/>
<path id="Rectangle 5620" d="M83.2197 119.067H50.633C48.5565 119.067 46.873 120.75 46.873 122.827C46.873 124.903 48.5565 126.587 50.633 126.587H83.2197C85.2963 126.587 86.9797 124.903 86.9797 122.827C86.9797 120.75 85.2963 119.067 83.2197 119.067Z" fill="#E1EBFA"/>
<g id="Rectangle 5618">
<path id="Vector" d="M135.86 85.2268H53.1403C50.3715 85.2268 48.127 87.4714 48.127 90.2401V102.773C48.127 105.542 50.3715 107.787 53.1403 107.787H135.86C138.629 107.787 140.874 105.542 140.874 102.773V90.2401C140.874 87.4714 138.629 85.2268 135.86 85.2268Z" stroke="#1485FD" stroke-width="2"/>
</g>
<path id="Rectangle 5619" d="M135.86 136.613H53.1397C49.6787 136.613 46.873 139.419 46.873 142.88V152.907C46.873 156.368 49.6787 159.173 53.1397 159.173H135.86C139.321 159.173 142.126 156.368 142.126 152.907V142.88C142.126 139.419 139.321 136.613 135.86 136.613Z" fill="#DFEAFB"/>
<g id="Group 26781">
<path id="Ellipse 654" d="M66.9274 40.1067C69.6962 40.1067 71.9407 37.8622 71.9407 35.0934C71.9407 32.3246 69.6962 30.0801 66.9274 30.0801C64.1586 30.0801 61.9141 32.3246 61.9141 35.0934C61.9141 37.8622 64.1586 40.1067 66.9274 40.1067Z" fill="white"/>
<path id="Ellipse 655" d="M94.5006 40.1067C97.2694 40.1067 99.514 37.8622 99.514 35.0934C99.514 32.3246 97.2694 30.0801 94.5006 30.0801C91.7319 30.0801 89.4873 32.3246 89.4873 35.0934C89.4873 37.8622 91.7319 40.1067 94.5006 40.1067Z" fill="#1485FD"/>
<path id="Ellipse 656" d="M122.074 40.1067C124.843 40.1067 127.087 37.8622 127.087 35.0934C127.087 32.3246 124.843 30.0801 122.074 30.0801C119.305 30.0801 117.061 32.3246 117.061 35.0934C117.061 37.8622 119.305 40.1067 122.074 40.1067Z" fill="white"/>
</g>
<g id="Group 26782">
<path id="Ellipse 658" d="M108.286 110.293C111.747 110.293 114.553 107.488 114.553 104.027C114.553 100.566 111.747 97.76 108.286 97.76C104.825 97.76 102.02 100.566 102.02 104.027C102.02 107.488 104.825 110.293 108.286 110.293Z" fill="#DFEAFB"/>
<path id="Path 25916" d="M113.183 130.811C112.18 130.811 111.244 130.811 110.392 130.757C109.342 130.686 108.332 130.326 107.473 129.719C106.614 129.111 105.94 128.278 105.524 127.311L100.236 116.861C99.8481 116.409 99.6545 115.823 99.6972 115.229C99.74 114.635 100.016 114.083 100.464 113.691C100.832 113.396 101.29 113.237 101.761 113.241C102.108 113.251 102.449 113.337 102.76 113.491C103.071 113.646 103.345 113.866 103.562 114.136L105.964 117.414L106 117.456V105.004C106 104.387 106.245 103.794 106.682 103.357C107.119 102.92 107.712 102.675 108.329 102.675C108.947 102.675 109.54 102.92 109.976 103.357C110.413 103.794 110.659 104.387 110.659 105.004V113.151C110.632 112.851 110.667 112.549 110.764 112.264C110.86 111.979 111.014 111.717 111.217 111.494C111.42 111.272 111.667 111.095 111.943 110.973C112.218 110.852 112.516 110.789 112.817 110.789C113.118 110.789 113.416 110.852 113.691 110.973C113.966 111.095 114.214 111.272 114.417 111.494C114.62 111.717 114.774 111.979 114.87 112.264C114.967 112.549 115.002 112.851 114.975 113.151V114.849C114.948 114.55 114.984 114.247 115.08 113.962C115.176 113.677 115.331 113.415 115.534 113.193C115.737 112.97 115.984 112.793 116.259 112.672C116.535 112.55 116.832 112.487 117.133 112.487C117.434 112.487 117.732 112.55 118.008 112.672C118.283 112.793 118.53 112.97 118.733 113.193C118.936 113.415 119.091 113.677 119.187 113.962C119.283 114.247 119.319 114.55 119.292 114.849V116.158C119.265 115.858 119.3 115.556 119.396 115.271C119.493 114.985 119.647 114.723 119.85 114.501C120.053 114.279 120.3 114.102 120.576 113.98C120.851 113.859 121.149 113.796 121.45 113.796C121.751 113.796 122.049 113.859 122.324 113.98C122.599 114.102 122.847 114.279 123.05 114.501C123.253 114.723 123.407 114.985 123.503 115.271C123.6 115.556 123.635 115.858 123.608 116.158V124.1C123.566 126.543 122.461 130.661 118.577 130.661C118.295 130.674 115.906 130.812 113.188 130.812L113.183 130.811Z" fill="#1485FD" stroke="white"/>
</g>
</g>
<defs>
<filter id="filter0_d_1015_2836" x="28.3398" y="44.8933" width="132.32" height="146.107" filterUnits="userSpaceOnUse" color-interpolation-filters="sRGB">
<feFlood flood-opacity="0" result="BackgroundImageFix"/>
<feColorMatrix in="SourceAlpha" type="matrix" values="0 0 0 0 0 0 0 0 0 0 0 0 0 0 0 0 0 0 127 0" result="hardAlpha"/>
<feOffset dy="-3"/>
<feGaussianBlur stdDeviation="3"/>
<feColorMatrix type="matrix" values="0 0 0 0 0.788235 0 0 0 0 0.803922 0 0 0 0 0.85098 0 0 0 0.349 0"/>
<feBlend mode="normal" in2="BackgroundImageFix" result="effect1_dropShadow_1015_2836"/>
<feBlend mode="normal" in="SourceGraphic" in2="effect1_dropShadow_1015_2836" result="shape"/>
</filter>
<linearGradient id="paint0_linear_1015_2836" x1="94.5" y1="0" x2="94.5" y2="188" gradientUnits="userSpaceOnUse">
<stop stop-color="#E3ECFA"/>
<stop offset="1" stop-color="#DAE7FF"/>
</linearGradient>
<linearGradient id="paint1_linear_1015_2836" x1="94.5" y1="0" x2="94.5" y2="188" gradientUnits="userSpaceOnUse">
<stop stop-color="#E3ECFA"/>
<stop offset="1" stop-color="#DAE7FF"/>
</linearGradient>
</defs>
</svg>
