<svg width="219" height="160" viewBox="0 0 219 160" fill="none" xmlns="http://www.w3.org/2000/svg">
<g id="Group 26753">
<g id="Group 26687">
<path id="Rectangle 5572" d="M133.786 46.544H123.619V50.84H133.786V46.544Z" fill="#EBEBEB"/>
<path id="Rectangle 5573" d="M128.114 51.962H117.947V56.258H128.114V51.962Z" fill="#EBEBEB"/>
<path id="Rectangle 5574" d="M139.457 51.962H129.29V56.258H139.457V51.962Z" fill="#EBEBEB"/>
<path id="Rectangle 5575" d="M175.958 87.2451H165.791V91.5411H175.958V87.2451Z" fill="#EBEBEB"/>
<path id="Rectangle 5576" d="M175.958 5.83203H165.791V10.128H175.958V5.83203Z" fill="#EBEBEB"/>
<path id="Rectangle 5577" d="M181.63 11.249H171.463V15.545H181.63V11.249Z" fill="#EBEBEB"/>
</g>
<g id="Group 26697">
<g id="Group 26690">
<path id="Rectangle 5581" d="M165.316 31.669H97.1553V34.658H165.316V31.669Z" fill="#EBEBEB"/>
<g id="Group 26688">
<path id="Rectangle 5582" d="M103.967 34.659H100.977V44.545H103.967V34.659Z" fill="#EBEBEB"/>
<path id="Rectangle 5583" d="M103.967 34.659H100.977V37.715H103.967V34.659Z" fill="#DBDBDB"/>
</g>
<g id="Group 26689">
<path id="Rectangle 5584" d="M161.497 34.659H158.507V44.545H161.497V34.659Z" fill="#EBEBEB"/>
<path id="Rectangle 5585" d="M161.497 34.659H158.507V37.715H161.497V34.659Z" fill="#DBDBDB"/>
</g>
</g>
<g id="Group 26696">
<path id="Rectangle 5586" d="M114.676 31.67V12.62H109.879V31.67H114.676Z" fill="#C7C7C7"/>
<path id="Rectangle 5587" d="M114.676 13.694V11.601H109.879V13.694H114.676Z" fill="#DBDBDB"/>
<path id="Rectangle 5588" d="M114.676 17.154V16.377H109.879V17.154H114.676Z" fill="#DBDBDB"/>
<path id="Rectangle 5589" d="M115.273 29.171V27.078H109.878V29.171H115.273Z" fill="#DBDBDB"/>
<g id="Group 26691">
<path id="Rectangle 5590" d="M118.028 31.67V9.448H114.675V31.67H118.028Z" fill="#DBDBDB"/>
<path id="Rectangle 5591" d="M117.344 20.084V11.537H115.332V20.084H117.344Z" fill="#EBEBEB"/>
</g>
<g id="Group 26692">
<path id="Rectangle 5592" d="M141.882 29.2894L126.077 13.668L123.72 16.0527L139.525 31.6741L141.882 29.2894Z" fill="#C7C7C7"/>
<path id="Rectangle 5593" d="M137.707 26.0925L131.63 20.084L130.215 21.5145L136.292 27.5231L137.707 26.0925Z" fill="#DBDBDB"/>
</g>
<g id="Group 26693">
<path id="Rectangle 5594" d="M123.721 31.673V14.794H118.027V31.673H123.721Z" fill="#A6A6A6"/>
<path id="Rectangle 5595" d="M123.721 29.884V28.311H118.027V29.884H123.721Z" fill="#C7C7C7"/>
<path id="Rectangle 5596" d="M123.721 27.278V26.668H118.027V27.278H123.721Z" fill="#C7C7C7"/>
</g>
<g id="Group 26694">
<path id="Rectangle 5597" d="M109.878 31.674V15.811H105.945V31.674H109.878Z" fill="#A6A6A6"/>
<path id="Rectangle 5598" d="M109.878 29.992V28.514H105.945V29.992H109.878Z" fill="#C7C7C7"/>
<path id="Rectangle 5599" d="M109.878 20.559V19.081H105.945V20.559H109.878Z" fill="#C7C7C7"/>
<path id="Rectangle 5600" d="M109.878 22.145V21.572H105.945V22.145H109.878Z" fill="#C7C7C7"/>
</g>
<g id="Group 26695">
<path id="Path 25771" d="M158.15 24.278L157.721 25.41L157.46 26.1L157.031 27.236L155.356 31.672H146.299L144.62 27.236L144.191 26.1L143.93 25.41L143.501 24.278L146.843 19.412L145.111 16.201H156.549L154.809 19.412L158.15 24.278Z" fill="#DBDBDB"/>
<path id="Path 25772" d="M158.15 24.278L157.721 25.41H143.93L143.501 24.278H158.15Z" fill="#A6A6A6"/>
<path id="Path 25773" d="M157.455 26.099L157.026 27.235H144.62L144.191 26.099H157.455Z" fill="#A6A6A6"/>
</g>
</g>
</g>
<g id="Group 26701">
<path id="Rectangle 5601" d="M78.531 0H27.459V78.31H78.531V0Z" fill="#EBEBEB"/>
<g id="Group 26698">
<path id="Rectangle 5602" d="M51.8082 3.13702H30.2422V37.969H51.8082V3.13702Z" fill="white"/>
<path id="Rectangle 5603" d="M75.7476 3.13702H54.1816V37.969H75.7476V3.13702Z" fill="white"/>
<path id="Rectangle 5604" d="M51.8082 40.342H30.2422V75.174H51.8082V40.342Z" fill="white"/>
<path id="Rectangle 5605" d="M75.7476 40.342H54.1816V75.174H75.7476V40.342Z" fill="white"/>
</g>
<g id="Group 26699">
<path id="Rectangle 5606" d="M39.555 0H27.459V112.036H39.555V0Z" fill="#DBDBDB"/>
<path id="Path 25774" d="M37.2624 5.32703L37.3554 17.441L37.3894 29.554L37.4534 53.781L37.3894 78.008L37.3554 90.122L37.2614 102.236L37.1674 90.122L37.1324 78.009L37.0684 53.782L37.1324 29.554L37.1664 17.44L37.2624 5.32703Z" fill="#EBEBEB"/>
<path id="Path 25775" d="M31.7066 8.13599L31.7997 18.952L31.8537 29.768L31.8987 51.401L31.8547 73.034L31.8007 83.847L31.7066 94.663L31.6126 83.847L31.5586 73.031L31.5146 51.398L31.5596 29.765L31.6136 18.949L31.7066 8.13599Z" fill="#EBEBEB"/>
<path id="Path 25776" d="M34.488 10.689L34.581 23.354L34.615 36.019L34.679 61.349L34.615 86.68L34.579 99.349L34.488 112.011L34.388 99.349L34.354 86.684L34.293 61.349L34.357 36.019L34.388 23.354L34.488 10.689Z" fill="#EBEBEB"/>
<path id="Path 25777" d="M29.6422 5.96503L29.7352 19.221L29.7692 32.477L29.8332 58.989L29.7692 85.501L29.7352 98.757L29.6412 112.013L29.5472 98.757L29.5132 85.501L29.4492 58.989L29.5132 32.477L29.5472 19.221L29.6422 5.96503Z" fill="#EBEBEB"/>
</g>
<g id="Group 26700">
<path id="Rectangle 5607" d="M66.4333 112.036H78.5293L78.5293 7.62939e-06H66.4333L66.4333 112.036Z" fill="#DBDBDB"/>
<path id="Path 25778" d="M68.7272 5.32703L68.8202 17.441L68.8542 29.554L68.9182 53.781L68.8542 78.008L68.8202 90.122L68.7262 102.236L68.6322 90.122L68.5982 78.008L68.5342 53.781L68.5982 29.554L68.6322 17.44L68.7272 5.32703Z" fill="#EBEBEB"/>
<path id="Path 25779" d="M74.2819 8.13599L74.3749 18.952L74.4289 29.768L74.4739 51.401L74.4299 73.034L74.3759 83.85L74.2819 94.666L74.1879 83.85L74.1329 73.035L74.0889 51.402L74.1329 29.769L74.1869 18.953L74.2819 8.13599Z" fill="#EBEBEB"/>
<path id="Path 25780" d="M71.5045 10.689L71.5975 23.354L71.6315 36.019L71.6955 61.349L71.6315 86.68L71.5985 99.349L71.5045 112.014L71.4105 99.349L71.3765 86.684L71.3125 61.353L71.3765 36.023L71.4105 23.358L71.5045 10.689Z" fill="#EBEBEB"/>
<path id="Path 25781" d="M76.3473 5.96503L76.4403 19.221L76.4743 32.477L76.5383 58.989L76.4743 85.501L76.4403 98.757L76.3463 112.013L76.2523 98.757L76.2183 85.501L76.1543 58.989L76.2183 32.477L76.2523 19.221L76.3473 5.96503Z" fill="#EBEBEB"/>
</g>
</g>
<path id="Line 3" d="M1.13086 112.122H217.87" stroke="#263238" stroke-linecap="round" stroke-linejoin="round"/>
<path id="Ellipse 645" d="M107.396 152.355C158.598 152.355 200.104 147.187 200.104 140.813C200.104 134.439 158.598 129.271 107.396 129.271C56.1953 129.271 14.6885 134.439 14.6885 140.813C14.6885 147.187 56.1953 152.355 107.396 152.355Z" fill="#EBEBEB"/>
<g id="Group 26704">
<path id="Path 25782" d="M154.814 119.461H63.8145L92.3875 52.772H183.387L154.814 119.461Z" fill="#263238"/>
<g id="Group 26702">
<path id="Path 25783" d="M93.0605 54.194H182.777L154.814 119.461H65.4375L93.0605 54.194Z" fill="#EBEBEB"/>
<path id="Path 25784" d="M93.0605 54.1939C93.4247 60.4819 92.7038 66.7856 90.9295 72.8289C88.0015 82.4059 73.4945 101.583 70.6725 114.518L65.4375 119.46H154.814L182.777 54.1929L93.0605 54.1939Z" fill="#DBDBDB"/>
<path id="Path 25785" d="M93.0604 54.194C92.9774 55.161 92.0344 67.969 88.2834 76.243C84.1014 85.468 74.0114 100.228 70.2734 113.757" stroke="#DBDBDB" stroke-miterlimit="10"/>
<path id="Path 25786" d="M92.1468 58.067C91.1553 64.7543 89.1704 71.2561 86.2578 77.357C81.4578 87.344 73.1908 99.915 69.3428 115.779" stroke="#DBDBDB" stroke-miterlimit="10"/>
</g>
<g id="Group 26703">
<path id="Path 25787" d="M121.45 123.161H208.84L179.26 54.194H93.0604C93.0604 54.194 92.7215 64.635 98.4405 79.743C103.827 93.976 113.792 102.532 121.45 123.161Z" fill="white"/>
<path id="Path 25788" d="M120.938 123.161C113.631 104.986 102.98 95.439 97.5016 82.303C93.2516 72.111 93.0605 54.194 93.0605 54.194" stroke="white" stroke-width="2" stroke-miterlimit="10"/>
<path id="Path 25789" d="M93.916 56.185C93.916 56.185 95.986 72.914 103.742 86.827C111.498 100.74 115.314 105.946 119.342 115.464" stroke="#EBEBEB" stroke-miterlimit="10"/>
</g>
<path id="Path 25790" d="M123.25 124.583H214.25L183.45 52.7709H92.4502L123.25 124.583Z" fill="#4A7EFB"/>
<path id="Path 25791" d="M181.986 124.583H202.007L171.207 52.7709H151.186L181.986 124.583Z" fill="#0059C9"/>
<path id="Path 25792" d="M132.713 124.583H139.963L109.163 52.7709H101.913L132.713 124.583Z" fill="#0059C9"/>
<path id="Path 25793" d="M93.0604 54.194H184.06L185.026 51.918H91.4414L93.0604 54.194Z" fill="#0059C9"/>
</g>
<g id="Group 26751">
<g id="Group 26706">
<path id="Path 25794" d="M52.9131 148.23L18.1061 139.065L1.91309 147.745L35.9601 159.091L52.9131 148.23Z" fill="#8DA8DF"/>
<path id="Path 25795" d="M50.7542 148.073L35.2322 158.051L3.32324 147.443L18.9792 139.128C18.9792 139.128 28.5282 140.385 28.9732 140.528C29.4182 140.671 33.6292 142.415 33.6292 142.415C33.6292 142.415 39.5372 143.443 39.9382 143.577C40.3392 143.711 50.7542 148.073 50.7542 148.073Z" fill="white"/>
<g id="Group 26705">
<path id="Path 25796" d="M33.6297 142.41C32.407 143.289 31.1774 144.158 29.9407 145.016L26.2177 147.573L22.4657 150.086C21.211 150.919 19.9487 151.739 18.6787 152.548C19.9007 151.669 21.1304 150.8 22.3677 149.942L26.0907 147.386L29.8437 144.874C31.0977 144.041 32.3597 143.219 33.6297 142.41Z" fill="#DBDBDB"/>
<path id="Path 25797" d="M47.3365 147.981C46.2031 147.536 45.0738 147.082 43.9485 146.617L40.5785 145.217L39.7375 144.864C39.5975 144.808 39.4545 144.747 39.3205 144.701C39.1865 144.655 39.0265 144.63 38.8795 144.594L37.1045 144.177C35.9225 143.895 34.7425 143.599 33.5645 143.289C34.7611 143.516 35.9558 143.755 37.1485 144.008L38.9355 144.395C39.0845 144.43 39.2355 144.455 39.3825 144.495C39.5295 144.535 39.6745 144.604 39.8185 144.66L40.6645 145.004C41.7845 145.484 42.9035 145.961 44.0155 146.458C45.1275 146.955 46.2355 147.46 47.3365 147.981Z" fill="#DBDBDB"/>
<path id="Path 25798" d="M46.2554 148.619C45.122 148.174 43.9927 147.72 42.8674 147.255L39.4974 145.855L38.6564 145.502C38.5164 145.446 38.3734 145.385 38.2404 145.339C38.1074 145.293 37.9454 145.268 37.7994 145.232L36.0244 144.815C34.8424 144.533 33.6624 144.237 32.4844 143.927C33.681 144.154 34.8757 144.393 36.0684 144.646L37.8554 145.033C38.0044 145.068 38.1554 145.093 38.3024 145.133C38.4494 145.173 38.5944 145.242 38.7384 145.298L39.5844 145.643C40.7044 146.122 41.8234 146.6 42.9354 147.096C44.0474 147.592 45.1544 148.098 46.2554 148.619Z" fill="#DBDBDB"/>
<path id="Path 25799" d="M45.1736 149.257C44.0656 148.822 42.9616 148.378 41.8616 147.924L38.5676 146.552L37.7466 146.207C37.4811 146.084 37.2058 145.984 36.9236 145.907L35.1906 145.492C34.0333 145.216 32.8783 144.929 31.7256 144.632C32.8963 144.846 34.0629 145.075 35.2256 145.32C35.8096 145.438 36.3886 145.571 36.9706 145.706C37.2637 145.782 37.55 145.883 37.8266 146.006L38.6526 146.345C39.7456 146.815 40.8406 147.281 41.9266 147.767C43.0126 148.253 44.0956 148.747 45.1736 149.257Z" fill="#DBDBDB"/>
<path id="Path 25800" d="M44.0927 149.893C43.0007 149.464 41.9127 149.027 40.8287 148.58L37.5827 147.227C37.0437 147.01 36.4997 146.752 35.9657 146.574L34.2597 146.163C33.1197 145.889 31.9817 145.605 30.8457 145.312C32.0004 145.521 33.1514 145.747 34.2987 145.988C34.8737 146.107 35.4437 146.235 36.0187 146.372C36.5987 146.56 37.1187 146.797 37.6687 147.02C38.7457 147.484 39.8257 147.942 40.8947 148.42C41.9637 148.898 43.0317 149.392 44.0927 149.893Z" fill="#DBDBDB"/>
<path id="Path 25801" d="M43.0105 150.532C41.9225 150.105 40.8382 149.668 39.7575 149.223L36.5225 147.875C35.9855 147.657 35.4425 147.405 34.9125 147.221C34.3545 147.075 33.7795 146.951 33.2125 146.81C32.0792 146.537 30.9458 146.254 29.8125 145.961C30.9632 146.168 32.1105 146.393 33.2545 146.634C33.8275 146.754 34.3945 146.88 34.9695 147.018C35.5445 147.213 36.0695 147.444 36.6115 147.668C37.6845 148.13 38.7605 148.587 39.8265 149.068C40.8925 149.549 41.9535 150.032 43.0105 150.532Z" fill="#DBDBDB"/>
<path id="Path 25802" d="M41.9293 151.168C40.8447 150.742 39.764 150.309 38.6873 149.868L35.4623 148.524C34.9273 148.306 34.3853 148.058 33.8623 147.868C33.3073 147.722 32.7333 147.597 32.1693 147.458C31.036 147.185 29.9057 146.903 28.7783 146.611C29.925 146.818 31.0687 147.041 32.2093 147.281C32.7803 147.401 33.3453 147.525 33.9193 147.665C34.4893 147.865 35.0123 148.092 35.5533 148.317C36.6233 148.779 37.6963 149.233 38.7583 149.711C39.8203 150.189 40.8763 150.669 41.9293 151.168Z" fill="#DBDBDB"/>
<path id="Path 25803" d="M40.8471 151.806C39.7761 151.385 38.7081 150.959 37.6471 150.519L34.4651 149.193C33.9351 148.978 33.4041 148.738 32.8791 148.538C32.3471 148.377 31.7701 148.263 31.2171 148.124C30.1001 147.853 28.9841 147.577 27.8721 147.285C29.0054 147.485 30.1341 147.705 31.2581 147.944C31.8231 148.069 32.3771 148.175 32.9471 148.338C33.4971 148.544 34.0211 148.762 34.5521 148.988C35.6081 149.444 36.6671 149.888 37.7141 150.365C38.7611 150.842 39.8071 151.314 40.8471 151.806Z" fill="#DBDBDB"/>
<path id="Path 25804" d="M39.7661 152.443C38.6951 152.022 37.6271 151.596 36.5661 151.156L33.3831 149.833C32.8531 149.618 32.3221 149.378 31.7971 149.178C31.2641 149.017 30.6881 148.903 30.1351 148.764C29.0181 148.493 27.9021 148.217 26.7891 147.925C27.9224 148.125 29.0511 148.345 30.1751 148.584C30.7401 148.709 31.2941 148.815 31.8641 148.977C32.4151 149.183 32.9381 149.401 33.4701 149.627C34.5261 150.083 35.5841 150.527 36.6321 151.004C37.6801 151.481 38.7261 151.951 39.7661 152.443Z" fill="#DBDBDB"/>
<path id="Path 25805" d="M38.8671 153.175C37.7821 152.745 36.6991 152.31 35.6221 151.861L32.3951 150.509L30.7841 149.836C30.2551 149.66 29.6631 149.552 29.1031 149.409C27.9691 149.134 26.8361 148.854 25.7031 148.558C26.8525 148.763 27.9981 148.986 29.1401 149.227C29.7131 149.359 30.2751 149.455 30.8551 149.638C31.4041 149.852 31.9421 150.072 32.4781 150.304C33.5481 150.769 34.6221 151.225 35.6851 151.704C36.7481 152.183 37.8131 152.675 38.8671 153.175Z" fill="#DBDBDB"/>
<path id="Path 25806" d="M37.7841 153.836C36.7021 153.404 35.6231 152.968 34.5501 152.517L31.3331 151.16L29.7271 150.484C29.2031 150.302 28.6101 150.198 28.0521 150.054C26.9211 149.779 25.7911 149.5 24.6641 149.204C25.8107 149.408 26.9537 149.631 28.0931 149.872C28.6641 150.006 29.2251 150.096 29.8041 150.286C30.3481 150.502 30.8861 150.721 31.4201 150.955C32.4871 151.422 33.5581 151.879 34.6201 152.363C35.6821 152.847 36.7331 153.334 37.7841 153.836Z" fill="#DBDBDB"/>
<path id="Path 25807" d="M36.6973 154.549C35.6503 154.12 34.6033 153.688 33.5643 153.241C32.5253 152.794 31.4883 152.341 30.4473 151.896L28.8913 151.224C28.6393 151.107 28.375 151.019 28.1033 150.961L27.2793 150.761C26.1793 150.492 25.0793 150.22 23.9873 149.928C25.1026 150.123 26.2143 150.338 27.3223 150.573L28.1513 150.759C28.2893 150.793 28.4273 150.82 28.5693 150.865C28.7113 150.91 28.8413 150.965 28.9693 151.022C29.4946 151.238 30.0153 151.461 30.5313 151.691C31.5643 152.154 32.6023 152.606 33.6313 153.091C34.6603 153.576 35.6793 154.053 36.6973 154.549Z" fill="#DBDBDB"/>
<path id="Path 25808" d="M35.6197 155.139C34.5537 154.751 33.4897 154.36 32.4317 153.953C31.3737 153.546 30.3177 153.132 29.2597 152.728C28.7317 152.528 28.1997 152.308 27.6787 152.128L26.0477 151.648C24.9637 151.317 23.8807 150.978 22.8047 150.619C23.9047 150.885 25.0047 151.171 26.1047 151.465L27.7427 151.922C28.2967 152.104 28.8147 152.314 29.3427 152.522C30.3947 152.945 31.4507 153.357 32.4947 153.8C33.5387 154.243 34.5807 154.685 35.6197 155.139Z" fill="#DBDBDB"/>
<path id="Path 25809" d="M19.9874 149.974C18.9734 149.621 17.9724 149.237 16.9774 148.842L16.2284 148.556C15.9827 148.458 15.7304 148.378 15.4734 148.316L13.9224 147.891L10.8224 147.022C9.78937 146.733 8.76338 146.422 7.73438 146.122C8.77538 146.38 9.81937 146.622 10.8564 146.895L13.9694 147.695L15.5234 148.107C15.7879 148.17 16.0483 148.248 16.3034 148.342C16.5564 148.435 16.8034 148.542 17.0524 148.642C18.049 149.049 19.0274 149.493 19.9874 149.974Z" fill="#DBDBDB"/>
<path id="Path 25810" d="M21.037 149.152C20.037 148.86 19.048 148.545 18.07 148.208C17.578 148.048 17.087 147.868 16.599 147.726L15.099 147.303L12.108 146.439C11.108 146.154 10.12 145.839 9.12598 145.539C10.131 145.795 11.141 146.039 12.143 146.306L15.151 147.106C16.1614 147.354 17.1581 147.654 18.137 148.006C19.117 148.356 20.082 148.741 21.037 149.152Z" fill="#DBDBDB"/>
<path id="Path 25811" d="M22.049 148.421C21.059 148.132 20.075 147.821 19.101 147.491L17.64 147.005L16.145 146.627L13.153 145.858C12.153 145.603 11.163 145.322 10.168 145.058C11.174 145.282 12.183 145.492 13.186 145.729L16.196 146.435L17.696 146.801C18.196 146.948 18.676 147.13 19.164 147.301C20.137 147.639 21.099 148.02 22.049 148.421Z" fill="#DBDBDB"/>
<path id="Path 25812" d="M22.9155 147.88C21.9355 147.536 20.9845 147.123 20.0265 146.741C19.795 146.638 19.5547 146.555 19.3085 146.495L18.5515 146.324L17.0355 145.988C15.0141 145.536 12.9958 145.069 10.9805 144.588C13.0171 144.97 15.0505 145.372 17.0805 145.794L18.6005 146.118L19.3605 146.283C19.6192 146.34 19.8714 146.422 20.1135 146.53C21.0708 146.93 22.0061 147.381 22.9155 147.88Z" fill="#DBDBDB"/>
<path id="Path 25813" d="M23.8647 147.221C22.8847 146.876 21.9337 146.463 20.9757 146.082C20.7442 145.979 20.5039 145.897 20.2577 145.837L19.5007 145.665L17.9847 145.333C15.9634 144.881 13.945 144.414 11.9297 143.933C13.9664 144.315 15.9997 144.717 18.0297 145.139L19.5497 145.463L20.3097 145.629C20.5683 145.686 20.8206 145.769 21.0627 145.876C22.0198 146.274 22.9551 146.723 23.8647 147.221Z" fill="#DBDBDB"/>
<path id="Path 25814" d="M24.812 146.561C23.832 146.217 22.881 145.803 21.923 145.422C21.6914 145.319 21.4511 145.237 21.205 145.176L20.448 145.005L18.932 144.67C16.9106 144.217 14.892 143.751 12.876 143.27C14.9126 143.652 16.946 144.054 18.976 144.476L20.496 144.8L21.256 144.965C21.5146 145.022 21.7669 145.105 22.009 145.212C22.9667 145.611 23.9024 146.062 24.812 146.561Z" fill="#DBDBDB"/>
<path id="Path 25815" d="M25.7612 145.901C24.7812 145.556 23.8302 145.143 22.8722 144.762C22.6406 144.659 22.4003 144.577 22.1542 144.517L21.3972 144.346L19.8802 144.01C17.8595 143.558 15.8412 143.091 13.8252 142.61C15.8619 142.992 17.8952 143.394 19.9252 143.816L21.4452 144.139L22.2052 144.305C22.4638 144.362 22.7161 144.445 22.9582 144.552C23.9158 144.952 24.8515 145.402 25.7612 145.901Z" fill="#DBDBDB"/>
<path id="Path 25816" d="M26.9858 145.371C26.0058 145.027 25.0558 144.613 24.0968 144.232C23.8655 144.129 23.6256 144.047 23.3798 143.987L22.6228 143.816L21.1068 143.48C19.0861 143.028 17.0678 142.561 15.0518 142.08C17.0884 142.462 19.1218 142.864 21.1518 143.286L22.6708 143.609L23.4308 143.775C23.6894 143.832 23.9417 143.915 24.1838 144.022C25.1411 144.421 26.0764 144.872 26.9858 145.371Z" fill="#DBDBDB"/>
<path id="Path 25817" d="M28.1762 144.847C27.1962 144.503 26.2452 144.09 25.2872 143.708C25.0557 143.605 24.8154 143.522 24.5692 143.462L23.8122 143.291L22.2962 142.956C20.2749 142.503 18.2562 142.037 16.2402 141.556C18.2769 141.938 20.3102 142.34 22.3402 142.762L23.8602 143.086L24.6202 143.251C24.8789 143.308 25.1312 143.391 25.3732 143.498C26.3309 143.898 27.2665 144.348 28.1762 144.847Z" fill="#DBDBDB"/>
<path id="Path 25818" d="M29.1257 144.187C28.1477 143.843 27.1987 143.43 26.2407 143.05C26.0104 142.947 25.771 142.866 25.5257 142.807L24.7687 142.648L23.2497 142.339C21.2244 141.924 19.201 141.496 17.1797 141.055C19.219 141.398 21.2547 141.762 23.2867 142.147L24.8097 142.447L25.5717 142.6C25.8307 142.655 26.0831 142.738 26.3247 142.846C27.2815 143.243 28.2165 143.691 29.1257 144.187Z" fill="#DBDBDB"/>
<path id="Path 25819" d="M30.0752 143.527C29.0982 143.183 28.1502 142.772 27.1952 142.392C26.9659 142.289 26.7271 142.208 26.4822 142.15L25.7242 142.004L24.2012 141.725C22.1712 141.351 20.1426 140.966 18.1152 140.57C20.1592 140.869 22.1992 141.19 24.2352 141.533L25.7612 141.799L26.5242 141.939C26.7838 141.993 27.0367 142.075 27.2782 142.184C28.2337 142.582 29.1673 143.03 30.0752 143.527Z" fill="#DBDBDB"/>
<path id="Path 25820" d="M31.023 142.868C30.048 142.525 29.102 142.115 28.148 141.735C27.9205 141.631 27.6829 141.551 27.439 141.496L26.679 141.372L25.151 141.143C23.114 140.837 21.077 140.527 19.042 140.198C21.0907 140.425 23.1363 140.675 25.179 140.95L26.71 141.166L27.477 141.285C27.7373 141.336 27.9907 141.418 28.232 141.528C29.1853 141.925 30.117 142.372 31.023 142.868Z" fill="#DBDBDB"/>
<path id="Path 25821" d="M34.5176 156.057C33.4296 155.696 32.3436 155.33 31.2626 154.948L28.0256 153.794C27.4866 153.607 26.9466 153.394 26.4136 153.217L24.7746 152.698C23.6836 152.343 22.5966 151.979 21.5156 151.598C22.6246 151.891 23.7276 152.198 24.8266 152.52L26.4726 153.013C27.0266 153.197 27.5616 153.385 28.1006 153.585C29.1746 153.985 30.2526 154.374 31.3206 154.79C32.3886 155.206 33.4566 155.625 34.5176 156.057Z" fill="#DBDBDB"/>
<path id="Path 25822" d="M19.2064 150.778C18.1064 150.439 17.0064 150.095 15.9174 149.736L12.6444 148.649L11.0154 148.105L9.36038 147.62C8.26038 147.288 7.16038 146.946 6.06738 146.586C7.18638 146.856 8.29938 147.144 9.40838 147.441L11.0704 147.901C11.6304 148.073 12.1704 148.25 12.7154 148.439C13.8014 148.817 14.8904 149.184 15.9704 149.578C17.0504 149.972 18.1324 150.367 19.2064 150.778Z" fill="#DBDBDB"/>
</g>
</g>
<g id="Group 26712">
<g id="Group 26711">
<g id="Group 26709">
<path id="Path 25823" d="M187.973 88.257C187.039 87.585 157.231 78.336 155.873 78.702C155.725 78.744 155.411 80.084 154.065 83.411C154 83.569 139.817 100.763 139.817 100.763L159.228 111.008L170.306 95.389C170.306 95.389 184.163 92.761 185.614 92.202C187.065 91.643 188.907 88.928 187.973 88.257Z" fill="#FFC3BD"/>
<g id="Group 26708">
<path id="Path 25824" d="M187.973 88.257C187.039 87.585 157.231 78.336 155.873 78.702C155.725 78.744 155.411 80.084 154.065 83.411C154 83.569 152.059 85.821 151.107 87.048C152.342 88.109 164.252 96.517 167.524 99.311L170.307 95.388C170.307 95.388 184.164 92.76 185.615 92.201C187.066 91.642 188.907 88.928 187.973 88.257Z" fill="#23CDAB"/>
<g id="Group 26707">
<path id="Path 25825" d="M161.552 81.599C161.4 81.9374 161.207 82.2561 160.979 82.548C160.527 83.1374 159.942 83.6113 159.272 83.931C158.591 84.2481 157.841 84.3858 157.092 84.331C156.35 84.2575 155.633 84.0285 154.986 83.659C154.95 83.64 154.986 83.584 155.02 83.604C155.664 83.916 156.373 84.0719 157.088 84.059C157.804 84.0462 158.507 83.8649 159.14 83.53C159.742 83.2151 160.264 82.7671 160.668 82.22C160.863 81.9526 161.031 81.6657 161.168 81.364C161.235 81.2135 161.294 81.0593 161.344 80.902C161.395 80.742 161.408 80.608 161.562 80.518C161.598 80.4987 161.641 80.4944 161.681 80.506C161.721 80.5175 161.755 80.544 161.776 80.58C161.941 80.835 161.662 81.351 161.552 81.599Z" fill="white"/>
<path id="Path 25826" d="M181.698 93.098C181.043 92.8521 180.48 92.4091 180.087 91.83C179.65 91.2439 179.288 90.6057 179.008 89.93C178.728 89.2672 178.531 88.5717 178.423 87.86C178.372 87.5134 178.34 87.1642 178.328 86.814C178.296 86.4576 178.317 86.0982 178.39 85.748C178.394 85.7349 178.402 85.7234 178.413 85.7152C178.424 85.707 178.437 85.7026 178.451 85.7026C178.465 85.7026 178.478 85.707 178.489 85.7152C178.5 85.7234 178.508 85.7349 178.511 85.748C178.557 86.0599 178.586 86.374 178.597 86.689C178.635 87.0379 178.69 87.3847 178.762 87.728C178.902 88.3966 179.103 89.051 179.362 89.683C179.835 90.9611 180.691 92.062 181.813 92.835C181.842 92.8541 181.862 92.8825 181.872 92.9153C181.881 92.948 181.879 92.983 181.865 93.0143C181.852 93.0455 181.827 93.0709 181.797 93.0862C181.767 93.1015 181.732 93.1057 181.698 93.098Z" fill="white"/>
<path id="Path 25827" d="M167.535 95.7C163.911 93.084 160.304 90.443 156.654 87.864C155.62 87.133 154.592 86.39 153.546 85.676C153.511 85.652 153.551 85.604 153.586 85.626C157.422 87.9319 161.131 90.4436 164.697 93.15C165.702 93.926 166.679 94.739 167.651 95.556C167.67 95.5714 167.682 95.5937 167.685 95.6181C167.687 95.6425 167.68 95.6669 167.665 95.686C167.649 95.7051 167.627 95.7173 167.603 95.7199C167.578 95.7225 167.554 95.7154 167.535 95.7Z" fill="white"/>
<path id="Path 25828" d="M153.884 86.261C153.871 86.2884 153.853 86.3129 153.83 86.333C153.804 86.353 153.775 86.371 153.748 86.39L153.592 86.49C153.481 86.564 153.369 86.634 153.253 86.7C153.028 86.828 152.798 86.945 152.565 87.058C152.532 87.074 152.502 87.022 152.534 87.003C152.752 86.868 152.966 86.726 153.177 86.58C153.277 86.509 153.383 86.439 153.487 86.369L153.651 86.256C153.699 86.2145 153.756 86.185 153.818 86.17C153.83 86.1681 153.841 86.1695 153.852 86.174C153.863 86.1784 153.872 86.1858 153.879 86.1952C153.886 86.2046 153.89 86.2157 153.891 86.2274C153.892 86.239 153.889 86.2506 153.884 86.261Z" fill="white"/>
<path id="Path 25829" d="M155.576 87.5079C155.563 87.5354 155.545 87.5599 155.522 87.58C155.496 87.6 155.468 87.6179 155.44 87.6369L155.284 87.7369C155.173 87.8109 155.061 87.8809 154.945 87.9469C154.72 88.0749 154.49 88.1919 154.257 88.3049C154.225 88.3209 154.194 88.2689 154.226 88.2499C154.444 88.1149 154.658 87.9719 154.869 87.8269C154.969 87.7559 155.076 87.6859 155.179 87.6159L155.342 87.5029C155.39 87.4614 155.448 87.4319 155.509 87.4169C155.521 87.4149 155.533 87.4161 155.544 87.4204C155.555 87.4248 155.564 87.4322 155.571 87.4416C155.578 87.4511 155.582 87.4623 155.583 87.474C155.584 87.4858 155.582 87.4975 155.576 87.5079Z" fill="white"/>
<path id="Path 25830" d="M157.266 88.755C157.253 88.7824 157.235 88.8069 157.212 88.827C157.186 88.847 157.158 88.865 157.13 88.884L156.974 88.984C156.863 89.058 156.751 89.128 156.635 89.194C156.41 89.322 156.18 89.439 155.947 89.552C155.914 89.568 155.884 89.516 155.916 89.497C156.134 89.362 156.348 89.219 156.558 89.073L156.868 88.862L157.032 88.7489C157.08 88.7074 157.137 88.678 157.199 88.663C157.211 88.6607 157.223 88.6619 157.234 88.6663C157.245 88.6707 157.255 88.6782 157.262 88.6878C157.269 88.6974 157.273 88.7088 157.274 88.7207C157.274 88.7326 157.272 88.7445 157.266 88.755Z" fill="white"/>
<path id="Path 25831" d="M158.956 90.001C158.944 90.0284 158.925 90.0529 158.902 90.073C158.876 90.093 158.848 90.111 158.82 90.13L158.664 90.23C158.553 90.304 158.442 90.374 158.326 90.44C158.1 90.568 157.87 90.685 157.638 90.798C157.605 90.814 157.575 90.762 157.607 90.742C157.825 90.608 158.039 90.465 158.25 90.319C158.35 90.248 158.457 90.179 158.56 90.108L158.723 89.995C158.772 89.9537 158.829 89.9242 158.89 89.909C158.902 89.907 158.914 89.9083 158.925 89.9128C158.936 89.9173 158.945 89.9248 158.952 89.9344C158.959 89.9439 158.963 89.9553 158.964 89.967C158.965 89.9788 158.962 89.9906 158.956 90.001Z" fill="white"/>
<path id="Path 25832" d="M160.648 91.248C160.635 91.2753 160.617 91.2998 160.594 91.32C160.568 91.34 160.54 91.358 160.512 91.377L160.356 91.477C160.245 91.551 160.133 91.6209 160.017 91.6869C159.792 91.8149 159.562 91.9319 159.328 92.0449C159.296 92.0609 159.266 92.0089 159.297 91.9889C159.516 91.8549 159.729 91.712 159.94 91.566C160.04 91.495 160.147 91.426 160.25 91.355L160.413 91.242C160.462 91.2008 160.519 91.1714 160.58 91.156C160.592 91.1535 160.604 91.1545 160.615 91.1588C160.627 91.1631 160.636 91.1705 160.644 91.1802C160.651 91.1899 160.655 91.2014 160.656 91.2134C160.657 91.2254 160.654 91.2374 160.648 91.248Z" fill="white"/>
<path id="Path 25833" d="M162.338 92.495C162.325 92.5223 162.307 92.5468 162.284 92.5669C162.258 92.5869 162.229 92.6049 162.202 92.6239L162.046 92.724C161.935 92.797 161.823 92.8679 161.707 92.9339C161.482 93.0619 161.252 93.1789 161.019 93.2919C160.986 93.3069 160.956 93.2559 160.988 93.2359C161.206 93.1019 161.42 92.9589 161.63 92.8129C161.73 92.7419 161.837 92.6729 161.94 92.6019L162.104 92.4889C162.153 92.4477 162.21 92.4183 162.271 92.4029C162.283 92.4007 162.295 92.4019 162.306 92.4063C162.317 92.4107 162.327 92.4182 162.334 92.4278C162.341 92.4374 162.345 92.4488 162.346 92.4607C162.347 92.4726 162.344 92.4845 162.338 92.495Z" fill="white"/>
<path id="Path 25834" d="M164.029 93.7399C164.016 93.7673 163.998 93.7918 163.975 93.8119C163.949 93.8319 163.921 93.85 163.893 93.868L163.737 93.9679C163.626 94.0419 163.515 94.112 163.399 94.178C163.174 94.306 162.944 94.423 162.71 94.536C162.678 94.551 162.647 94.5 162.679 94.48C162.897 94.346 163.111 94.203 163.322 94.057C163.422 93.986 163.529 93.917 163.632 93.846L163.794 93.733C163.843 93.6917 163.901 93.6622 163.962 93.647C163.974 93.6446 163.987 93.6457 163.998 93.6501C164.009 93.6546 164.019 93.6621 164.026 93.6719C164.033 93.6817 164.037 93.6933 164.038 93.7054C164.038 93.7175 164.035 93.7295 164.029 93.7399Z" fill="white"/>
<path id="Path 25835" d="M165.72 94.987C165.707 95.0148 165.689 95.0397 165.666 95.06C165.64 95.08 165.612 95.098 165.584 95.116L165.428 95.221C165.317 95.294 165.205 95.365 165.089 95.43C164.864 95.558 164.634 95.675 164.401 95.788C164.368 95.803 164.338 95.752 164.37 95.732C164.588 95.598 164.802 95.455 165.012 95.309C165.112 95.238 165.219 95.169 165.322 95.098L165.485 94.985C165.533 94.9434 165.59 94.914 165.652 94.899C165.663 94.897 165.675 94.8982 165.686 94.9024C165.696 94.9065 165.706 94.9135 165.713 94.9226C165.72 94.9316 165.724 94.9424 165.725 94.9537C165.727 94.9651 165.725 94.9766 165.72 94.987Z" fill="white"/>
<path id="Path 25836" d="M167.411 96.239C167.398 96.2663 167.38 96.2908 167.357 96.311C167.331 96.331 167.302 96.349 167.275 96.367L167.119 96.467C167.008 96.541 166.896 96.611 166.78 96.677C166.555 96.805 166.326 96.922 166.093 97.035C166.06 97.051 166.03 96.999 166.062 96.98C166.28 96.846 166.494 96.703 166.705 96.557C166.805 96.486 166.912 96.417 167.015 96.346L167.179 96.233C167.227 96.1915 167.284 96.162 167.346 96.147C167.357 96.1453 167.369 96.1467 167.38 96.1513C167.39 96.1559 167.4 96.1634 167.406 96.1729C167.413 96.1825 167.417 96.1937 167.418 96.2054C167.419 96.2171 167.416 96.2287 167.411 96.239Z" fill="white"/>
</g>
</g>
</g>
<g id="Group 26710">
<path id="Path 25837" d="M164.944 103.387L147.822 89.913C147.822 89.913 130.243 112.379 129.944 112.531C122.118 112.698 114.317 113.489 106.617 114.896C104.627 115.296 94.023 110.116 82.165 120.096L83.949 138.672C102.598 141.34 128.614 137.325 139.701 133.696C150.17 130.267 164.944 103.387 164.944 103.387Z" fill="#A0BDFF"/>
<path id="Path 25838" d="M162.547 105.145C158.696 101.962 154.809 98.828 150.762 95.896C149.61 95.061 148.423 94.2749 147.29 93.4149C147.252 93.3859 147.212 93.448 147.249 93.477C148.237 94.247 149.172 95.0769 150.142 95.8709C151.112 96.6649 152.081 97.4489 153.061 98.2249C155.016 99.7719 157.035 101.234 159.044 102.71C160.19 103.553 161.344 104.381 162.505 105.21C162.546 105.236 162.583 105.175 162.547 105.145Z" fill="#455A64"/>
<path id="Path 25839" d="M149.404 97.4049C146.322 101.505 143.226 105.591 140.16 109.705C138.626 111.761 137.089 113.814 135.548 115.865C134.98 116.815 134.103 117.542 133.064 117.924C132.503 118.062 131.932 118.156 131.355 118.207L129.449 118.442C124.388 119.066 119.329 119.699 114.266 120.311C113.004 120.488 111.732 120.582 110.458 120.592C109.185 120.537 107.919 120.382 106.671 120.127C104.405 119.739 102.101 119.617 99.8055 119.763C95.2555 120.113 90.8127 121.321 86.7115 123.322C86.1905 123.569 85.6735 123.822 85.1605 124.087C85.1175 124.109 85.1605 124.171 85.1995 124.151C89.428 122.081 93.9893 120.776 98.6725 120.296C100.978 120.069 103.301 120.115 105.595 120.433C106.822 120.611 108.034 120.884 109.269 121.001C110.536 121.098 111.809 121.068 113.07 120.912C115.613 120.643 118.149 120.293 120.688 119.98L128.312 119.04C129.576 118.884 130.847 118.753 132.107 118.567C133.137 118.482 134.108 118.052 134.863 117.347C135.629 116.483 136.331 115.565 136.964 114.6C137.737 113.542 138.515 112.487 139.296 111.435C142.338 107.315 145.355 103.177 148.382 99.0459L149.519 97.4949C149.564 97.4239 149.453 97.3409 149.404 97.4049Z" fill="#455A64"/>
</g>
</g>
</g>
<g id="Group 26720">
<g id="Group 26719">
<g id="Group 26715">
<path id="Path 25840" d="M139.56 55.816C138.604 56.455 119.497 81.133 119.36 82.531C119.347 82.685 120.493 83.448 123.137 85.875C123.379 86.6942 123.506 87.5429 123.514 88.397C123.967 93.819 124.34 106.072 124.34 106.072L144.355 101.149L140.934 80.287L140.046 74.861C140.046 74.861 142.441 60.961 142.426 59.407C142.411 57.853 140.515 55.177 139.56 55.816Z" fill="#FFC3BD"/>
<g id="Group 26714">
<path id="Path 25841" d="M139.56 55.816C138.604 56.455 119.497 81.133 119.36 82.531C119.347 82.685 120.493 83.448 123.137 85.875C123.379 86.6942 123.506 87.5429 123.514 88.397C126.789 86.817 136.849 82.169 140.934 80.285L140.046 74.859C140.046 74.859 142.441 60.959 142.426 59.405C142.411 57.851 140.515 55.177 139.56 55.816Z" fill="#23CDAB"/>
<g id="Group 26713">
<path id="Path 25842" d="M124.068 78.231C124.332 78.4919 124.563 78.7841 124.757 79.101C125.152 79.7305 125.392 80.4447 125.457 81.185C125.514 81.9336 125.379 82.6844 125.064 83.366C124.735 84.0346 124.27 84.6265 123.697 85.103C123.666 85.13 123.626 85.079 123.658 85.052C124.176 84.5578 124.57 83.9486 124.809 83.2736C125.048 82.5987 125.124 81.877 125.032 81.167C124.948 80.4926 124.711 79.8461 124.34 79.277C124.158 79.0005 123.948 78.7434 123.713 78.51C123.596 78.3937 123.471 78.2845 123.341 78.183C123.209 78.083 123.088 78.021 123.058 77.844C123.053 77.8028 123.064 77.7611 123.088 77.7277C123.113 77.6944 123.15 77.6719 123.191 77.665C123.488 77.599 123.875 78.041 124.068 78.231Z" fill="white"/>
<path id="Path 25843" d="M141.896 63.39C141.436 63.9176 140.824 64.2896 140.144 64.455C139.441 64.6589 138.715 64.7744 137.983 64.799C137.264 64.8297 136.544 64.7703 135.839 64.622C135.497 64.5485 135.158 64.4557 134.826 64.344C134.481 64.2497 134.151 64.1041 133.849 63.912C133.838 63.9037 133.83 63.8921 133.827 63.8789C133.823 63.8657 133.824 63.8516 133.829 63.8388C133.834 63.8261 133.843 63.8152 133.854 63.808C133.866 63.8008 133.88 63.7977 133.893 63.799C134.201 63.8658 134.506 63.9489 134.805 64.048C135.145 64.1351 135.489 64.2048 135.836 64.257C136.511 64.3605 137.195 64.4016 137.877 64.38C139.24 64.3862 140.572 63.9701 141.689 63.189C141.819 63.094 141.999 63.258 141.896 63.39Z" fill="white"/>
<path id="Path 25844" d="M139.612 78.215C135.588 80.16 131.55 82.077 127.545 84.063C126.41 84.625 125.268 85.176 124.145 85.757C124.108 85.777 124.085 85.718 124.12 85.698C127.972 83.4184 131.944 81.3487 136.02 79.498C137.18 78.982 138.36 78.509 139.541 78.043C139.552 78.0383 139.564 78.0359 139.576 78.0359C139.589 78.036 139.601 78.0384 139.612 78.0431C139.623 78.0477 139.634 78.0546 139.642 78.0633C139.651 78.0719 139.658 78.0822 139.662 78.0935C139.667 78.1048 139.669 78.1169 139.669 78.1291C139.669 78.1413 139.667 78.1534 139.662 78.1647C139.658 78.176 139.651 78.1862 139.642 78.1949C139.633 78.2035 139.623 78.2103 139.612 78.215Z" fill="white"/>
<path id="Path 25845" d="M124.813 85.734C124.832 85.7584 124.845 85.7863 124.851 85.816C124.856 85.848 124.859 85.882 124.863 85.916C124.869 85.979 124.876 86.041 124.881 86.103C124.893 86.236 124.901 86.368 124.904 86.503C124.904 86.762 124.904 87.02 124.891 87.279C124.891 87.315 124.829 87.317 124.827 87.279C124.812 87.023 124.788 86.767 124.76 86.512C124.746 86.388 124.735 86.263 124.722 86.139C124.716 86.0723 124.708 86.0057 124.7 85.939C124.686 85.8772 124.686 85.8128 124.7 85.751C124.704 85.7395 124.71 85.7292 124.72 85.7213C124.729 85.7134 124.74 85.7082 124.752 85.7064C124.763 85.7047 124.776 85.7063 124.787 85.7112C124.798 85.7161 124.807 85.724 124.813 85.734Z" fill="white"/>
<path id="Path 25846" d="M126.714 84.84C126.732 84.8641 126.745 84.8917 126.752 84.921C126.757 84.954 126.759 84.987 126.763 85.021C126.769 85.083 126.775 85.145 126.781 85.208C126.793 85.341 126.802 85.472 126.805 85.608C126.81 85.867 126.805 86.125 126.792 86.383C126.792 86.419 126.73 86.421 126.728 86.383C126.713 86.127 126.689 85.871 126.661 85.616C126.647 85.492 126.636 85.367 126.623 85.243C126.617 85.177 126.609 85.111 126.602 85.043C126.587 84.9812 126.587 84.9168 126.602 84.855C126.606 84.8439 126.613 84.834 126.622 84.8265C126.631 84.8191 126.642 84.8143 126.653 84.8127C126.665 84.8111 126.677 84.8129 126.688 84.8177C126.698 84.8225 126.707 84.8303 126.714 84.84Z" fill="white"/>
<path id="Path 25847" d="M128.615 83.945C128.634 83.9694 128.647 83.9974 128.653 84.027C128.659 84.059 128.661 84.093 128.664 84.127C128.67 84.19 128.676 84.252 128.682 84.314C128.694 84.447 128.702 84.579 128.705 84.714C128.71 84.973 128.705 85.231 128.693 85.49C128.693 85.526 128.631 85.528 128.629 85.49C128.614 85.234 128.59 84.979 128.562 84.723C128.548 84.599 128.537 84.474 128.524 84.35C128.517 84.284 128.51 84.218 128.503 84.15C128.488 84.0882 128.488 84.0238 128.503 83.962C128.507 83.9507 128.514 83.9407 128.522 83.933C128.531 83.9253 128.542 83.9203 128.554 83.9185C128.566 83.9167 128.578 83.9183 128.589 83.923C128.599 83.9276 128.609 83.9353 128.615 83.945Z" fill="white"/>
<path id="Path 25848" d="M130.515 83.05C130.533 83.0741 130.546 83.1017 130.553 83.131C130.559 83.164 130.561 83.197 130.564 83.231C130.571 83.293 130.577 83.355 130.582 83.418C130.594 83.551 130.603 83.683 130.606 83.818C130.611 84.077 130.606 84.335 130.594 84.594C130.594 84.63 130.532 84.632 130.53 84.594C130.515 84.338 130.491 84.083 130.463 83.827C130.449 83.703 130.438 83.578 130.425 83.454C130.418 83.388 130.411 83.322 130.404 83.254C130.389 83.1922 130.389 83.1278 130.404 83.066C130.408 83.055 130.414 83.0453 130.423 83.0379C130.432 83.0305 130.443 83.0257 130.454 83.0241C130.466 83.0224 130.478 83.024 130.488 83.0285C130.499 83.0331 130.508 83.0405 130.515 83.05Z" fill="white"/>
<path id="Path 25849" d="M132.416 82.155C132.434 82.1795 132.447 82.2074 132.454 82.237C132.459 82.269 132.461 82.303 132.465 82.337C132.471 82.399 132.478 82.461 132.483 82.524C132.495 82.656 132.504 82.788 132.507 82.924C132.512 83.183 132.507 83.441 132.494 83.7C132.494 83.736 132.432 83.738 132.43 83.7C132.415 83.444 132.391 83.188 132.363 82.933C132.349 82.809 132.338 82.685 132.325 82.56C132.319 82.4934 132.311 82.4267 132.303 82.36C132.288 82.2982 132.288 82.2338 132.303 82.172C132.307 82.1605 132.313 82.1502 132.322 82.1423C132.331 82.1344 132.342 82.1293 132.354 82.1275C132.366 82.1257 132.378 82.1273 132.389 82.1322C132.4 82.1371 132.41 82.145 132.416 82.155Z" fill="white"/>
<path id="Path 25850" d="M134.317 81.26C134.335 81.2841 134.348 81.3117 134.355 81.341C134.36 81.374 134.362 81.407 134.366 81.441C134.372 81.503 134.379 81.566 134.384 81.628C134.396 81.761 134.405 81.893 134.408 82.028C134.413 82.287 134.408 82.545 134.395 82.804C134.395 82.84 134.333 82.842 134.331 82.804C134.316 82.548 134.292 82.292 134.264 82.037C134.25 81.913 134.239 81.788 134.226 81.664C134.22 81.598 134.212 81.532 134.205 81.464C134.191 81.4022 134.191 81.3378 134.205 81.276C134.209 81.2648 134.216 81.2548 134.225 81.2472C134.234 81.2396 134.245 81.2347 134.256 81.2331C134.268 81.2314 134.28 81.233 134.291 81.2378C134.302 81.2425 134.311 81.2502 134.317 81.26Z" fill="white"/>
<path id="Path 25851" d="M136.218 80.365C136.236 80.3894 136.249 80.4173 136.256 80.447C136.262 80.48 136.264 80.513 136.267 80.547C136.273 80.609 136.279 80.671 136.285 80.734C136.297 80.867 136.306 80.998 136.309 81.134C136.314 81.393 136.309 81.651 136.296 81.91C136.296 81.946 136.234 81.948 136.232 81.91C136.217 81.654 136.193 81.398 136.165 81.143C136.151 81.019 136.14 80.894 136.127 80.769C136.121 80.703 136.113 80.637 136.106 80.569C136.091 80.5072 136.091 80.4428 136.106 80.381C136.11 80.3698 136.116 80.3598 136.125 80.3523C136.134 80.3447 136.145 80.3398 136.157 80.3381C136.169 80.3364 136.181 80.3381 136.191 80.3428C136.202 80.3476 136.211 80.3553 136.218 80.365Z" fill="white"/>
<path id="Path 25852" d="M138.113 79.471C138.132 79.4954 138.145 79.5233 138.151 79.553C138.157 79.585 138.159 79.619 138.162 79.653C138.169 79.716 138.175 79.778 138.18 79.84C138.192 79.973 138.201 80.105 138.204 80.24C138.209 80.499 138.204 80.757 138.192 81.016C138.192 81.052 138.13 81.054 138.128 81.016C138.113 80.76 138.089 80.505 138.061 80.249C138.047 80.125 138.036 80 138.023 79.876C138.016 79.81 138.009 79.744 138.002 79.676C137.987 79.6142 137.987 79.5497 138.002 79.488C138.006 79.4769 138.013 79.4671 138.022 79.4596C138.03 79.4521 138.041 79.4472 138.053 79.4454C138.064 79.4437 138.076 79.4451 138.087 79.4496C138.097 79.4541 138.107 79.4615 138.113 79.471Z" fill="white"/>
<path id="Path 25853" d="M140.017 78.576C140.036 78.6001 140.048 78.6277 140.055 78.657C140.06 78.69 140.063 78.723 140.066 78.757C140.072 78.819 140.079 78.881 140.084 78.944C140.096 79.077 140.105 79.209 140.108 79.344C140.113 79.603 140.108 79.861 140.095 80.119C140.095 80.155 140.033 80.157 140.031 80.119C140.016 79.863 139.992 79.607 139.964 79.352C139.95 79.228 139.939 79.103 139.926 78.979C139.919 78.913 139.912 78.847 139.904 78.779C139.89 78.7172 139.89 78.6529 139.904 78.591C139.908 78.5796 139.915 78.5695 139.924 78.5618C139.933 78.5542 139.944 78.5492 139.956 78.5477C139.968 78.5461 139.98 78.5479 139.991 78.5529C140.002 78.558 140.011 78.566 140.017 78.576Z" fill="white"/>
</g>
</g>
</g>
<g id="Group 26718">
<g id="Group 26717">
<path id="Path 25854" d="M141.957 86.133L121.764 90.422C121.764 90.422 124.186 118.702 124.098 119.022C117.941 119.798 111.733 120.099 105.529 119.922C105.529 119.922 91.6444 113.887 82.1654 124.301L80.8174 142.572C107.228 145.772 142.588 144.29 147.276 135.296C152.369 125.528 141.957 86.133 141.957 86.133Z" fill="#A0BDFF"/>
<g id="Group 26716">
<path id="Path 25855" d="M124.05 118.896C121.81 118.896 118.05 119.319 115.813 119.406C113.591 119.492 111.37 119.623 109.149 119.738C107.871 119.804 106.802 119.725 105.528 119.847C105.518 119.847 105.509 119.851 105.502 119.858C105.495 119.865 105.491 119.874 105.491 119.884C105.491 119.894 105.495 119.903 105.502 119.91C105.509 119.917 105.518 119.921 105.528 119.921C109.922 120.157 114.328 120.07 118.709 119.661C119.988 119.546 122.834 119.243 124.103 119.053C124.165 119.046 124.27 118.896 124.05 118.896Z" fill="#455A64"/>
<path id="Path 25856" d="M104.27 117.993C103.441 117.075 102.509 116.256 101.493 115.551C101.458 115.526 101.418 115.583 101.449 115.61C102.334 116.443 103.166 117.332 103.941 118.269C104.78 119.173 105.55 120.139 106.247 121.157C106.25 121.161 106.254 121.163 106.259 121.164C106.264 121.164 106.269 121.163 106.273 121.161C106.278 121.158 106.281 121.154 106.282 121.149C106.284 121.145 106.283 121.14 106.282 121.135C105.723 120.02 105.049 118.967 104.27 117.993Z" fill="#455A64"/>
<path id="Path 25857" d="M148.683 121.691C148.659 120.691 148.571 119.691 148.494 118.699C148.342 116.724 148.146 114.754 147.883 112.791C147.352 108.837 146.666 104.91 145.783 101.019C145.536 99.932 145.283 98.846 145.004 97.765C144.752 96.658 144.438 95.5663 144.063 94.495C144.031 94.412 143.88 94.42 143.896 94.522C144.039 95.479 144.296 96.429 144.507 97.373C144.718 98.317 144.937 99.29 145.14 100.25C145.554 102.209 145.934 104.176 146.279 106.15C146.967 110.071 147.524 114.009 147.989 117.962C148.12 119.072 148.23 120.185 148.35 121.296C148.41 121.852 148.634 126.296 148.645 126.871C148.645 126.92 148.724 126.917 148.719 126.871C148.673 126.376 148.718 123.178 148.683 121.691Z" fill="#455A64"/>
<path id="Path 25858" d="M124.05 115.826C123.994 114.793 123.845 113.766 123.607 112.759C123.604 112.754 123.6 112.751 123.595 112.748C123.59 112.746 123.584 112.745 123.579 112.746C123.573 112.747 123.568 112.749 123.564 112.753C123.56 112.757 123.557 112.762 123.556 112.767C123.491 113.83 123.527 114.897 123.664 115.953C123.761 116.984 123.911 118.009 124.112 119.024C124.116 119.03 124.121 119.035 124.128 119.038C124.135 119.04 124.142 119.041 124.149 119.04C124.156 119.039 124.163 119.036 124.168 119.031C124.174 119.026 124.178 119.02 124.18 119.013C124.193 117.949 124.15 116.885 124.05 115.826Z" fill="#455A64"/>
<path id="Path 25859" d="M142.662 124.849C142.586 121.291 142.342 117.738 141.983 114.198C141.275 107.214 140.121 100.279 138.883 93.371C138.732 92.523 138.58 91.6756 138.427 90.829C138.418 90.781 138.348 90.804 138.356 90.85C139.51 97.76 140.694 104.671 141.478 111.636C141.867 115.094 142.165 118.564 142.313 122.041C142.385 123.728 142.427 125.418 142.413 127.107C142.437 128.524 142.307 129.939 142.023 131.328C141.749 132.705 141.106 133.981 140.164 135.022C139.154 136.011 137.925 136.748 136.576 137.173C135.116 137.652 133.623 138.027 132.108 138.293C130.442 138.623 128.762 138.893 127.07 139.102C120.3 139.833 113.486 140.073 106.681 139.821C99.7115 139.681 92.7425 139.421 85.7715 139.345C84.8975 139.335 84.0245 139.324 83.1515 139.303C83.1035 139.303 83.1055 139.376 83.1515 139.377C86.7465 139.488 90.3395 139.646 93.9345 139.756C97.4958 139.865 101.057 139.971 104.619 140.072C111.502 140.382 118.397 140.233 125.259 139.627C128.581 139.31 131.874 138.741 135.11 137.927C136.474 137.608 137.78 137.078 138.98 136.356C140.124 135.632 141.039 134.599 141.62 133.377C142.871 130.76 142.722 127.67 142.662 124.849Z" fill="#455A64"/>
<path id="Path 25860" d="M141.987 89.294C137.05 90.059 132.125 90.883 127.246 91.961C125.857 92.268 124.481 92.633 123.085 92.909C123.038 92.919 123.058 92.99 123.105 92.981C124.337 92.754 125.58 92.607 126.816 92.408C128.052 92.209 129.283 92.008 130.516 91.789C132.971 91.355 135.405 90.816 137.843 90.295C139.235 89.995 140.622 89.682 142.009 89.365C142.057 89.356 142.036 89.285 141.987 89.294Z" fill="#455A64"/>
</g>
</g>
</g>
</g>
</g>
<g id="Group 26750">
<g id="Group 26729">
<g id="Group 26724">
<g id="Group 26722">
<path id="Path 25861" d="M38.7656 115.073C39.4984 111.882 40.7173 108.822 42.3796 106.001C43.3346 104.559 46.5146 100.707 47.6796 101.355C48.8446 102.003 48.0126 103.211 48.0126 103.211C48.0126 103.211 49.5996 101.785 50.7126 102.543C51.8256 103.301 50.4716 105.143 50.4716 105.143C50.4716 105.143 52.2076 103.797 53.2626 104.634C54.3176 105.471 52.6476 107.089 52.6476 107.089C52.6476 107.089 54.1786 105.789 54.7566 106.839C55.4566 108.107 52.3566 110.194 51.3836 111.839C51.1626 112.213 47.4336 119.744 47.4336 119.744L38.7656 115.073Z" fill="#FFC3BD"/>
<g id="Group 26721">
<path id="Path 25862" d="M52.6398 107.126C50.731 108.294 49.2885 110.091 48.5598 112.207C48.5388 112.255 48.4598 112.235 48.4798 112.182C49.3178 109.661 50.0378 108.192 52.5708 107.011C52.6948 106.954 52.7478 107.052 52.6398 107.126Z" fill="#263238"/>
<path id="Path 25863" d="M50.5395 105.049C48.6679 106.489 47.1772 108.365 46.1975 110.513C46.1785 110.549 46.1165 110.521 46.1325 110.483C47.2245 107.913 47.9765 106.463 50.4325 104.951C50.5415 104.883 50.6405 104.966 50.5395 105.049Z" fill="#263238"/>
<path id="Path 25864" d="M47.8368 103.37C46.0327 104.887 44.6758 106.866 43.9118 109.096C43.9078 109.109 43.8987 109.12 43.8865 109.127C43.8743 109.133 43.86 109.135 43.8468 109.131C43.8335 109.127 43.8224 109.118 43.8158 109.106C43.8092 109.094 43.8078 109.079 43.8118 109.066C44.325 106.703 45.7466 104.638 47.7698 103.314C47.9138 103.214 47.9638 103.25 47.8368 103.37Z" fill="#263238"/>
</g>
</g>
<g id="Group 26723">
<path id="Path 25865" d="M47.2153 121.689C48.5216 120.672 49.7509 119.559 50.8933 118.361C51.8723 117.161 53.8783 111.361 52.6493 110.854C51.0623 110.203 49.2433 113.326 48.5493 114.972C48.5493 114.972 44.8793 113.462 43.0893 115.421C41.2993 117.38 47.2153 121.689 47.2153 121.689Z" fill="#FFC3BD"/>
<path id="Path 25866" d="M52.1519 110.818C50.2759 111.268 49.5089 113.487 48.7199 115.034C48.7093 115.057 48.6932 115.078 48.673 115.094C48.6527 115.109 48.629 115.12 48.6037 115.125C48.5785 115.129 48.5525 115.128 48.5279 115.12C48.5034 115.113 48.4811 115.099 48.4629 115.081C46.8829 114.551 44.4989 114.263 43.0859 115.312C43.078 115.319 43.0675 115.323 43.0568 115.322C43.0461 115.322 43.0361 115.317 43.0289 115.309C43.0218 115.301 43.018 115.291 43.0186 115.28C43.0192 115.269 43.024 115.259 43.0319 115.252C44.3939 113.921 46.7589 114.013 48.4539 114.704C49.2389 113.104 50.1059 110.913 52.1479 110.804C52.1492 110.804 52.1504 110.805 52.1514 110.806C52.1524 110.807 52.1531 110.809 52.1535 110.81C52.1539 110.811 52.1539 110.813 52.1537 110.814C52.1534 110.816 52.1528 110.817 52.1519 110.818Z" fill="#263238"/>
</g>
</g>
<g id="Group 26726">
<g id="Group 26725">
<path id="Path 25867" d="M60.1365 121.916C55.7908 128.448 49.9151 133.819 43.0205 137.562C38.5985 139.986 33.9625 137.162 33.1995 135.371C31.5675 131.543 37.2575 116.685 39.3115 113.69C39.9205 112.801 40.8365 114.583 43.6955 117.076C45.0495 118.257 50.2415 117.953 49.8745 119.417C49.6125 120.46 47.9145 123.423 48.1525 123.404C48.7395 123.355 53.0355 120.232 57.5835 117.304C63.8425 113.276 61.5975 119.772 60.1365 121.916Z" fill="#FFC3BD"/>
</g>
<path id="Path 25868" d="M48.1608 123.284C47.8888 123.647 43.9608 131.666 43.0268 133.318C43.0028 133.36 43.0668 133.395 43.0918 133.354C44.0918 131.741 45.1268 130.147 46.0088 128.466C46.4448 127.636 46.8938 126.804 47.2518 125.938C47.4228 125.524 47.5808 125.106 47.7428 124.688C47.9481 124.249 48.1111 123.792 48.2298 123.323C48.2368 123.285 48.1868 123.248 48.1608 123.284Z" fill="#263238"/>
</g>
<g id="Group 26728">
<g id="Group 26727">
<path id="Path 25869" d="M48.5283 122.644L58.5333 126.473C60.1309 124.182 61.6079 121.808 62.9583 119.363C64.7503 115.807 63.8493 114.308 59.3263 116.144C56.2993 117.371 48.5283 122.644 48.5283 122.644Z" fill="#4A7EFB"/>
</g>
<path id="Path 25870" d="M49.9062 122.083C51.4012 122.54 52.8852 123.017 54.3512 123.56C55.0846 123.831 55.8112 124.113 56.5312 124.406C57.2532 124.699 57.9462 125.067 58.6702 125.349C58.7102 125.365 58.6822 125.428 58.6432 125.41C57.9352 125.09 57.1762 124.864 56.4522 124.584C55.7282 124.304 54.9962 124.025 54.2662 123.752C52.8082 123.206 51.3502 122.652 49.8802 122.144C49.8382 122.133 49.8662 122.071 49.9062 122.083Z" fill="#263238"/>
</g>
</g>
<g id="Group 26730">
<path id="Path 25871" d="M68.2265 122.891H66.3355C66.2215 121.777 65.934 120.688 65.4835 119.663C65.7082 120.723 65.7926 121.809 65.7345 122.891H64.0735C63.9144 121.048 63.387 119.256 62.5225 117.621C62.9971 119.337 63.2273 121.111 63.2065 122.891H48.5725C47.9235 119.804 48.4265 116.444 48.1725 117.177C47.5993 119.029 47.2903 120.953 47.2545 122.891H45.6255C45.5799 122.111 45.6242 121.329 45.7575 120.56C45.9715 119.535 45.1305 121.56 45.0235 122.891H43.9865C43.8913 120.307 44.3694 117.734 45.3865 115.357C47.5235 111.185 46.2725 109.641 47.1495 105.073C48.1495 99.873 54.9775 93.591 61.8025 100.161C62.9698 101.175 63.9084 102.426 64.5561 103.83C65.2038 105.234 65.5458 106.76 65.5595 108.306C65.5915 112.022 64.7465 113.985 66.0215 115.894C67.4465 117.95 68.2153 120.389 68.2265 122.891Z" fill="#263238"/>
<path id="Path 25872" d="M43.3189 122.27C43.1444 120.687 43.2931 119.086 43.7559 117.562C43.9767 116.796 44.2593 116.049 44.6009 115.329C44.7649 114.969 44.9679 114.614 45.1429 114.271C45.3209 113.932 45.4743 113.581 45.6019 113.22C46.06 111.731 46.3547 110.197 46.4809 108.645C46.5809 107.863 46.6809 107.079 46.8439 106.303C46.9983 105.526 47.2391 104.769 47.5619 104.045C47.1398 105.557 46.8958 107.113 46.8349 108.682C46.7759 109.467 46.6999 110.254 46.5889 111.041C46.4759 111.834 46.289 112.615 46.0309 113.374C45.8926 113.754 45.7272 114.124 45.5359 114.481C45.3479 114.836 45.1619 115.166 44.9879 115.517C44.6399 116.212 44.3412 116.931 44.0939 117.668C43.8443 118.406 43.652 119.163 43.5189 119.931C43.4459 120.315 43.3989 120.703 43.3619 121.094C43.3249 121.485 43.3139 121.876 43.3189 122.27Z" fill="#263238"/>
<path id="Path 25873" d="M65.564 108.307C65.596 108.939 65.551 109.57 65.564 110.197C65.577 110.824 65.578 111.449 65.633 112.067C65.6857 112.683 65.7898 113.293 65.944 113.891C65.978 114.041 66.031 114.185 66.072 114.332L66.105 114.442L66.141 114.533C66.169 114.596 66.202 114.661 66.241 114.727C66.388 114.991 66.557 115.257 66.722 115.527C67.047 116.068 67.366 116.621 67.643 117.197C67.9222 117.773 68.1563 118.369 68.343 118.981C68.5276 119.592 68.6545 120.22 68.722 120.855C68.7837 121.487 68.781 122.124 68.714 122.755C68.6693 121.505 68.4301 120.269 68.005 119.093C67.5677 117.928 67.009 116.813 66.338 115.765C66.177 115.495 66.011 115.229 65.855 114.94C65.816 114.866 65.779 114.791 65.744 114.71C65.727 114.669 65.71 114.622 65.695 114.581L65.661 114.464C65.619 114.308 65.561 114.155 65.535 113.997C65.3903 113.372 65.3073 112.734 65.287 112.092C65.2663 111.458 65.2873 110.823 65.35 110.192C65.404 109.556 65.494 108.933 65.564 108.307Z" fill="#263238"/>
</g>
<g id="Group 26731">
<path id="Path 25874" d="M80.5252 143.251C83.6913 140.073 85.7366 135.95 86.3518 131.507C86.967 127.063 86.1187 122.54 83.9352 118.621C83.9352 118.621 79.1802 119.377 77.9352 119.133C74.1502 118.396 71.3132 116.3 66.9552 114.676C62.5972 113.052 59.5862 114.327 57.8552 117.287C57.4232 118.026 55.2982 128.818 56.8552 132.646C58.0762 135.657 63.0222 136.53 63.0222 136.53C63.0222 136.53 72.2022 144.17 80.5252 143.251Z" fill="#4A7EFB"/>
</g>
<g id="Group 26743">
<g id="Group 26742">
<g id="Group 26732">
<path id="Path 25875" d="M63.4592 116.79C63.4272 117.282 61.6762 120.733 59.4942 120.99C58.7832 121.073 58.1582 117.213 58.1582 117.213L58.0462 116.938L56.4922 113.096L60.6802 109.31L61.2912 108.799C61.2912 108.799 61.6472 109.878 62.0772 111.227C62.0972 111.289 62.1172 111.352 62.1382 111.419C62.1592 111.486 62.1902 111.566 62.2112 111.637C62.2782 111.837 62.3452 112.043 62.4112 112.248C62.4602 112.405 62.5112 112.557 62.5532 112.722C62.5952 112.887 62.6462 113.049 62.6962 113.214C63.032 114.387 63.287 115.582 63.4592 116.79Z" fill="#FFC3BD"/>
<path id="Path 25876" d="M62.0772 111.229C61.8602 112.417 61.3872 113.543 60.6911 114.529C59.995 115.515 59.0924 116.338 58.0462 116.94L56.4922 113.098L60.6802 109.312L61.2912 108.801C61.2912 108.801 61.6472 109.88 62.0772 111.229Z" fill="#263238"/>
</g>
<g id="Group 26741">
<path id="Path 25877" d="M49.5969 108.828C51.2229 115.918 55.6539 115.745 57.1819 115.393C58.5689 115.073 63.2539 113.808 62.3689 106.587C61.4839 99.366 57.6689 97.882 54.4619 98.445C51.2549 99.008 47.9709 101.737 49.5969 108.828Z" fill="#FFC3BD"/>
<g id="Group 26738">
<path id="Path 25878" d="M50.6575 107.448C50.8084 107.375 50.9553 107.294 51.0975 107.206C51.2637 107.142 51.4042 107.025 51.4975 106.873C51.5172 106.82 51.5188 106.761 51.5019 106.707C51.4851 106.653 51.4509 106.606 51.4045 106.573C51.3026 106.521 51.1887 106.498 51.0746 106.505C50.9605 106.512 50.8504 106.549 50.7555 106.613C50.5435 106.713 50.3763 106.888 50.2865 107.105C50.2691 107.156 50.2668 107.21 50.2798 107.262C50.2929 107.314 50.3208 107.361 50.3601 107.397C50.3995 107.434 50.4485 107.458 50.5013 107.467C50.5541 107.476 50.6084 107.469 50.6575 107.448Z" fill="#263238"/>
<path id="Path 25879" d="M55.5215 106.131C55.3557 106.154 55.1888 106.169 55.0215 106.175C54.8474 106.215 54.665 106.196 54.5025 106.122C54.4565 106.089 54.4225 106.042 54.4059 105.987C54.3893 105.933 54.3909 105.875 54.4105 105.822C54.4663 105.722 54.5477 105.639 54.6464 105.582C54.745 105.524 54.8573 105.494 54.9715 105.494C55.2034 105.459 55.4401 105.511 55.6355 105.641C55.6777 105.673 55.7097 105.717 55.7276 105.767C55.7456 105.817 55.7487 105.871 55.7367 105.923C55.7247 105.974 55.698 106.022 55.6598 106.059C55.6216 106.096 55.5736 106.121 55.5215 106.131Z" fill="#263238"/>
<g id="Group 26734">
<g id="Group 26733">
<path id="Path 25880" d="M55.125 108.168C55.125 108.149 55.169 108.18 55.174 108.2C55.292 108.681 55.508 109.213 55.984 109.251C55.999 109.251 56.004 109.276 55.984 109.279C55.435 109.351 55.159 108.643 55.125 108.168Z" fill="#263238"/>
<path id="Path 25881" d="M55.4124 107.553C56.1634 107.28 56.6524 108.803 55.9574 109.053C55.2624 109.303 54.7824 107.78 55.4124 107.553Z" fill="#263238"/>
</g>
<path id="Path 25882" d="M55.7375 107.532C55.8985 107.576 56.0765 107.685 56.2425 107.65C56.4335 107.609 56.5225 107.404 56.5945 107.212C56.6025 107.192 56.6195 107.201 56.6265 107.221C56.6952 107.353 56.7111 107.506 56.671 107.649C56.6308 107.792 56.5377 107.914 56.4105 107.991C56.1385 108.122 55.8505 107.93 55.6825 107.66C55.6505 107.615 55.6725 107.519 55.7375 107.532Z" fill="#263238"/>
</g>
<g id="Group 26736">
<g id="Group 26735">
<path id="Path 25883" d="M52.1042 108.903C52.0942 108.886 52.0752 108.937 52.0812 108.957C52.2512 109.423 52.3682 109.984 51.9942 110.281C51.9822 110.29 51.9942 110.313 52.0062 110.306C52.5022 110.061 52.3402 109.317 52.1042 108.903Z" fill="#263238"/>
<path id="Path 25884" d="M51.5212 108.551C50.7452 108.743 51.1872 110.28 51.9052 110.102C52.6232 109.924 52.1672 108.39 51.5212 108.551Z" fill="#263238"/>
</g>
<path id="Path 25885" d="M51.2299 108.744C51.1299 108.86 51.0538 109.044 50.9118 109.094C50.7468 109.153 50.5749 109.023 50.4219 108.894C50.4059 108.881 50.3978 108.894 50.4028 108.918C50.4788 109.218 50.6638 109.492 50.9628 109.468C51.2348 109.445 51.3508 109.139 51.3368 108.826C51.3338 108.768 51.2689 108.697 51.2299 108.744Z" fill="#263238"/>
</g>
<path id="Path 25886" d="M56.0565 111.861C55.9865 112.011 55.9305 112.202 55.7675 112.279C55.5933 112.34 55.4083 112.363 55.2245 112.348C55.2207 112.348 55.217 112.349 55.2138 112.351C55.2107 112.353 55.2083 112.356 55.207 112.359C55.2058 112.363 55.2057 112.367 55.2069 112.37C55.2081 112.374 55.2104 112.377 55.2135 112.379C55.3138 112.446 55.4302 112.484 55.5504 112.49C55.6707 112.495 55.7903 112.469 55.8965 112.412C55.9819 112.352 56.0476 112.268 56.0853 112.171C56.1231 112.074 56.1311 111.968 56.1085 111.866C56.1065 111.836 56.0675 111.839 56.0565 111.861Z" fill="#263238"/>
<g id="Group 26737">
<path id="Path 25887" d="M53.5508 110.76C53.5508 110.76 53.6708 111.497 53.7738 111.831C53.7838 111.862 53.8738 111.852 53.9848 111.824C53.9908 111.824 53.9948 111.824 53.9978 111.824C54.3007 111.788 54.5878 111.668 54.8274 111.479C55.067 111.29 55.2498 111.039 55.3558 110.753C55.3688 110.713 55.3158 110.692 55.2918 110.722C54.9564 111.144 54.4937 111.446 53.9728 111.583C53.9208 111.498 53.8088 110.314 53.7548 110.326C53.5046 110.427 53.2692 110.562 53.0548 110.726C52.7548 109.198 52.7108 107.635 52.3948 106.118C52.392 106.107 52.3856 106.098 52.3767 106.091C52.3678 106.085 52.3568 106.081 52.3457 106.082C52.3347 106.083 52.3241 106.087 52.3159 106.094C52.3077 106.102 52.3024 106.112 52.3008 106.123C52.3012 107.8 52.4687 109.472 52.8008 111.116C52.8258 111.32 53.4348 110.858 53.5508 110.76Z" fill="#263238"/>
</g>
</g>
<path id="Path 25888" d="M62.4038 107.052C60.5978 107.558 58.3288 102.235 58.0568 101.578C58.4196 102.483 58.6841 103.424 58.8458 104.385C58.6529 104.442 58.4518 104.467 58.2508 104.458C58.1632 104.188 58.0553 103.925 57.9278 103.671C57.8738 103.55 57.9668 103.958 58.0548 104.471C57.9448 104.471 57.8248 104.477 57.6958 104.484C57.5314 103.9 57.29 103.34 56.9778 102.82C57.0038 103.386 57.068 103.949 57.1698 104.506C55.5043 104.546 53.8482 104.769 52.2318 105.173C51.7808 105.298 51.3988 105.426 51.0638 105.551C50.8488 104.885 50.6988 104.151 50.6988 104.318C50.694 104.764 50.7332 105.209 50.8158 105.647C50.6348 105.716 50.4678 105.783 50.3158 105.847C49.9698 104.919 49.9378 103.272 49.8608 103.547C49.6398 104.399 49.5821 105.285 49.6908 106.158C49.0908 106.487 48.9498 106.67 48.8798 106.509C48.481 104.591 48.7777 102.594 49.7168 100.875C51.2788 98.062 55.5628 96.114 59.1048 98.551C60.5842 98.9922 61.8409 99.9786 62.6208 101.311C63.6388 103.378 63.4468 106.758 62.4038 107.052Z" fill="#263238"/>
<g id="Group 26740">
<g id="Group 26739">
<path id="Path 25889" d="M61.3672 107.389C61.3672 107.389 62.1812 104.741 63.3352 104.963C64.4892 105.185 64.3632 108.685 63.3502 109.484C63.2274 109.596 63.0832 109.681 62.9264 109.736C62.7697 109.79 62.6035 109.812 62.4379 109.801C62.2724 109.789 62.1109 109.744 61.9631 109.669C61.8154 109.593 61.6844 109.488 61.5782 109.361L61.3672 107.389Z" fill="#FFC3BD"/>
<path id="Path 25890" d="M63.274 105.965C63.292 105.957 63.304 105.982 63.29 105.994C62.9791 106.298 62.7355 106.664 62.5748 107.068C62.414 107.471 62.3399 107.905 62.357 108.339C62.3778 108.243 62.4191 108.153 62.4782 108.074C62.5373 107.996 62.6127 107.931 62.6992 107.885C62.7857 107.838 62.8813 107.811 62.9793 107.805C63.0773 107.799 63.1755 107.814 63.267 107.85C63.293 107.858 63.283 107.898 63.259 107.9C63.1026 107.901 62.9503 107.95 62.823 108.041C62.6957 108.131 62.5996 108.259 62.548 108.407C62.4633 108.654 62.4053 108.91 62.375 109.17C62.36 109.254 62.218 109.258 62.218 109.17V109.149C61.862 108.124 62.202 106.424 63.274 105.965Z" fill="#263238"/>
</g>
</g>
</g>
</g>
</g>
<g id="Group 26749">
<g id="Group 26746">
<path id="Path 25891" d="M69.6816 118.067C75.6236 125.444 83.7396 137.978 80.3466 140.902C74.7686 145.709 58.2106 148.802 54.4076 149.355C52.7656 149.593 49.2076 138.915 50.2726 137.496C51.3376 136.077 68.8906 134.667 68.9876 133.585C69.0426 132.972 67.4876 127.759 65.6106 121.272C63.4476 113.792 67.9816 115.956 69.6816 118.067Z" fill="#FFC3BD"/>
<g id="Group 26745">
<path id="Path 25892" d="M53.1305 136.539C53.1305 136.539 48.0855 136.623 44.7895 136.834C42.6383 136.93 40.5163 137.369 38.5035 138.134C36.5415 139.187 29.0035 144.846 30.3405 146.701C31.5465 148.381 37.4015 142.701 37.4015 142.701C37.4015 142.701 30.9865 147.913 32.8115 149.669C34.6365 151.425 40.3965 144.124 40.3965 144.124C40.3965 144.124 33.9255 149.624 36.0965 151.14C37.7345 152.284 43.3245 145.966 43.3245 145.966C43.3245 145.966 37.7955 150.735 39.4295 151.983C41.2355 153.363 46.7615 147.854 46.7615 147.854C51.4495 150.329 54.6935 149.589 56.9385 148.789C57.4795 148.596 53.1305 136.539 53.1305 136.539Z" fill="#FFC3BD"/>
<g id="Group 26744">
<path id="Path 25893" d="M39.5046 140.757C38.7286 141.342 37.9396 141.929 37.2186 142.581C36.4976 143.233 35.7986 143.911 35.1416 144.626C34.2644 145.545 33.4957 146.562 32.8506 147.656C34.2129 145.89 35.7376 144.254 37.4046 142.772C38.1236 142.122 38.8106 141.435 39.5306 140.783C39.5466 140.762 39.5236 140.743 39.5046 140.757Z" fill="#263238"/>
<path id="Path 25894" d="M41.9055 143.318C40.9475 144.108 39.9675 144.857 39.0435 145.689C38.1195 146.521 37.3255 147.384 36.4655 148.273C36.3995 148.342 36.4575 148.355 36.5275 148.288C37.4225 147.433 38.3145 146.713 39.2185 145.869C40.1225 145.025 40.9945 144.146 41.9255 143.339C41.9405 143.326 41.9195 143.305 41.9055 143.318Z" fill="#263238"/>
<path id="Path 25895" d="M44.3615 145.145C42.8626 146.321 41.4887 147.648 40.2615 149.105C40.1985 149.176 40.2765 149.184 40.3445 149.115C41.6815 147.773 42.7215 146.715 44.3995 145.197C44.4275 145.174 44.3935 145.121 44.3615 145.145Z" fill="#263238"/>
<path id="Path 25896" d="M56.8832 135.896C56.1752 135.908 54.6902 136.236 53.0352 136.345C49.3102 136.589 44.0352 136.699 42.1582 136.845C37.0882 137.226 34.0892 141.045 32.6962 142.385C31.8631 143.199 31.1122 144.092 30.4542 145.053C30.1122 145.574 29.7912 146.313 30.2772 146.87C30.8682 147.548 33.0062 146.761 35.1952 144.682C35.2742 144.607 35.2222 144.563 35.1412 144.632C32.0622 147.254 30.8032 146.991 30.4652 146.563C30.2462 146.286 30.4392 145.794 30.6202 145.416C30.9133 144.87 31.2752 144.363 31.6972 143.909C33.0985 142.328 34.6572 140.893 36.3492 139.627C38.1661 138.2 40.3509 137.319 42.6492 137.086C44.2812 136.912 49.3072 136.836 53.0612 136.559C54.7052 136.437 56.1812 136.075 56.8942 135.989C56.9432 135.977 56.9372 135.895 56.8832 135.896Z" fill="#263238"/>
</g>
</g>
</g>
<g id="Group 26748">
<g id="Group 26747">
<path id="Path 25897" d="M77.2677 127.425L66.5567 127.631C65.8317 124.933 65.2479 122.2 64.8077 119.441C64.3287 115.488 65.6847 114.383 69.3167 117.641C71.7467 119.828 77.2677 127.425 77.2677 127.425Z" fill="#4A7EFB"/>
</g>
<path id="Path 25898" d="M67.8635 127.609C67.7485 127.59 66.6475 127.575 66.5635 127.597C66.4155 126.981 65.6876 124.109 65.6016 123.812C65.6006 123.808 65.5989 123.804 65.5964 123.8C65.5939 123.796 65.5907 123.793 65.5871 123.791C65.5834 123.789 65.5793 123.787 65.575 123.786C65.5707 123.785 65.5663 123.786 65.562 123.786C65.5578 123.787 65.5537 123.789 65.5501 123.792C65.5466 123.794 65.5435 123.797 65.5411 123.801C65.5387 123.805 65.5371 123.809 65.5363 123.813C65.5356 123.817 65.5356 123.822 65.5365 123.826C65.5685 124 65.6875 124.663 65.8265 125.405L65.8095 125.376C65.7355 125.246 65.6515 125.12 65.5695 124.994C65.4875 124.868 65.4185 124.721 65.3455 124.585C65.3235 124.543 65.2575 124.585 65.2815 124.624C65.3565 124.753 65.4395 124.881 65.5035 125.017C65.5675 125.153 65.6205 125.274 65.6865 125.399C65.7525 125.524 65.8195 125.646 65.8865 125.77L65.8966 125.788C66.0556 126.625 66.2255 127.475 66.3135 127.788C66.8308 127.775 67.3468 127.73 67.8585 127.654C67.8855 127.643 67.8815 127.612 67.8635 127.609Z" fill="#263238"/>
<path id="Path 25899" d="M76.1627 126.43C74.6017 126.352 73.0437 126.297 71.4807 126.311C70.7007 126.318 69.9213 126.336 69.1427 126.367C68.3647 126.398 67.5877 126.509 66.8107 126.528C66.7677 126.528 66.7727 126.598 66.8107 126.595C67.5847 126.535 68.3747 126.58 69.1517 126.562C69.9287 126.544 70.7107 126.53 71.4907 126.521C73.0477 126.502 74.6057 126.48 76.1627 126.497C76.2117 126.497 76.2037 126.432 76.1627 126.43Z" fill="#263238"/>
<path id="Path 25900" d="M73.2683 122.074C73.2653 122.071 73.2614 122.07 73.2575 122.07C73.2535 122.07 73.2496 122.071 73.2465 122.074C73.2435 122.076 73.2413 122.08 73.2406 122.084C73.2398 122.087 73.2404 122.091 73.2423 122.095C73.4753 122.56 76.2623 126.368 77.1513 127.355C76.8732 127.369 76.5964 127.4 76.3223 127.449C76.6861 127.481 77.052 127.484 77.4163 127.458C77.4363 127.45 73.6703 122.419 73.2683 122.074Z" fill="#263238"/>
</g>
</g>
</g>
</g>
<g id="Group 26752">
<path id="Path 25901" d="M61.2771 85.179C60.2583 87.1802 58.6995 88.8562 56.7771 90.017C54.7277 89.0992 52.9767 87.625 51.7231 85.762C50.4001 83.454 50.9901 80.837 52.8141 80.162C55.4301 79.193 56.3981 83.794 56.3981 83.794C56.3981 83.794 56.7981 79.11 59.5161 79.754C61.4071 80.201 62.3101 82.728 61.2771 85.179Z" fill="#23CDAB"/>
<path id="Path 25902" d="M48.2178 77.159C48.2926 78.9927 47.8523 80.8107 46.9467 82.407C45.1207 82.5733 43.2846 82.2244 41.6468 81.4C39.7808 80.286 39.1527 78.185 40.1827 76.974C41.6587 75.237 44.1898 78.126 44.1898 78.126C44.1898 78.126 42.5997 74.626 44.7897 74C46.3177 73.561 47.9728 74.999 48.2178 77.159Z" fill="#23CDAB"/>
<path id="Path 25903" d="M64.9429 52.909C65.0179 54.743 64.5776 56.5614 63.6719 58.158C61.8458 58.3241 60.0097 57.9753 58.3719 57.151C56.5049 56.037 55.8779 53.936 56.9069 52.725C58.3829 50.987 60.9139 53.877 60.9139 53.877C60.9139 53.877 59.3249 50.377 61.5139 49.75C63.0419 49.312 64.6969 50.75 64.9429 52.909Z" fill="#23CDAB"/>
<path id="Path 25904" d="M57.9577 66.333C57.1692 67.4072 56.0952 68.2387 54.8577 68.733C53.7461 68.0009 52.8622 66.9715 52.3067 65.762C51.7527 64.286 52.3467 62.811 53.4787 62.59C55.1017 62.273 55.2287 65.056 55.2287 65.056C55.2287 65.056 55.9097 62.356 57.4377 62.99C58.5087 63.433 58.7957 64.997 57.9577 66.333Z" fill="#23CDAB"/>
<path id="Path 25905" d="M50.5778 45.156C50.4247 45.9421 50.0544 46.6696 49.5088 47.256C48.7165 47.1422 47.972 46.8086 47.3598 46.293C47.2045 46.1791 47.0753 46.0334 46.981 45.8655C46.8866 45.6977 46.8292 45.5116 46.8126 45.3197C46.7961 45.1278 46.8207 44.9346 46.8849 44.7531C46.9491 44.5715 47.0513 44.4058 47.1848 44.267C47.9848 43.679 48.7688 45.161 48.7688 45.161C48.7688 45.161 48.4468 43.517 49.4418 43.471C50.1348 43.438 50.6908 44.215 50.5778 45.156Z" fill="#23CDAB"/>
</g>
</g>
</svg>
