<svg width="792" height="792" viewBox="0 0 792 792" fill="none" xmlns="http://www.w3.org/2000/svg">
<path d="M325.797 360.469L274.873 299.067L223.949 360.469V598.246" stroke="#CCDDE2" stroke-width="4.01"/>
<g opacity="0.81">
<path fill-rule="evenodd" clip-rule="evenodd" d="M256.463 370.73H242.779V384.414H256.463V370.73Z" stroke="#CCDDE2" stroke-width="4.01"/>
<path fill-rule="evenodd" clip-rule="evenodd" d="M282.34 370.73H268.656V384.414H282.34V370.73Z" stroke="#CCDDE2" stroke-width="4.01"/>
<path fill-rule="evenodd" clip-rule="evenodd" d="M308.209 370.73H294.525V384.414H308.209V370.73Z" stroke="#CCDDE2" stroke-width="4.01"/>
</g>
<g opacity="0.46">
<path fill-rule="evenodd" clip-rule="evenodd" d="M256.463 402.514H242.779V416.198H256.463V402.514Z" stroke="#CCDDE2" stroke-width="4.01"/>
<path fill-rule="evenodd" clip-rule="evenodd" d="M282.34 402.514H268.656V416.198H282.34V402.514Z" stroke="#CCDDE2" stroke-width="4.01"/>
<path fill-rule="evenodd" clip-rule="evenodd" d="M308.209 402.514H294.525V416.198H308.209V402.514Z" stroke="#CCDDE2" stroke-width="4.01"/>
</g>
<g opacity="0.25">
<path fill-rule="evenodd" clip-rule="evenodd" d="M256.463 435.641H242.779V449.324H256.463V435.641Z" stroke="#CCDDE2" stroke-width="4.01"/>
<path fill-rule="evenodd" clip-rule="evenodd" d="M282.34 435.641H268.656V449.324H282.34V435.641Z" stroke="#CCDDE2" stroke-width="4.01"/>
<path fill-rule="evenodd" clip-rule="evenodd" d="M308.209 435.641H294.525V449.324H308.209V435.641Z" stroke="#CCDDE2" stroke-width="4.01"/>
</g>
<g opacity="0.25">
<path fill-rule="evenodd" clip-rule="evenodd" d="M256.463 464.103H242.779V477.786H256.463V464.103Z" stroke="#CCDDE2" stroke-width="4.01"/>
<path fill-rule="evenodd" clip-rule="evenodd" d="M282.34 464.103H268.656V477.786H282.34V464.103Z" stroke="#CCDDE2" stroke-width="4.01"/>
<path fill-rule="evenodd" clip-rule="evenodd" d="M308.209 464.103H294.525V477.786H308.209V464.103Z" stroke="#CCDDE2" stroke-width="4.01"/>
</g>
<path d="M205.003 560.975V272.492H72.8462V598.797" stroke="#CCDDE2" stroke-width="4.01"/>
<path fill-rule="evenodd" clip-rule="evenodd" d="M191.87 299.067V315.949H174.989V284.964H191.87V299.067ZM189.099 287.735H177.767V299.067H189.099V287.735ZM177.767 301.846H189.099V313.147H177.767V301.846Z" fill="#D7E8F0"/>
<path fill-rule="evenodd" clip-rule="evenodd" d="M162.097 299.067V315.949H145.223V284.964H162.097V299.067ZM159.326 287.735H147.994V299.067H159.326V287.735ZM147.994 301.846H159.326V313.147H147.994V301.846Z" fill="#D7E8F0"/>
<path fill-rule="evenodd" clip-rule="evenodd" d="M133.146 299.067V315.949H116.272V284.964H133.146V299.067ZM130.375 287.735H119.043V299.067H130.375V287.735ZM119.043 301.846H130.375V313.147H119.043V301.846Z" fill="#D7E8F0"/>
<path fill-rule="evenodd" clip-rule="evenodd" d="M105.895 284.964V315.949H89.0208V284.964H105.895ZM91.7917 313.147H103.124V301.846H91.7917V313.147ZM103.124 299.044H91.7917V287.712H103.124V299.044Z" fill="#D7E8F0"/>
<path fill-rule="evenodd" clip-rule="evenodd" d="M191.87 340.747V357.628H174.989V326.644H191.87V340.747ZM189.099 329.415H177.767V340.747H189.099V329.415ZM177.767 343.518H189.099V354.857H177.767V343.518Z" fill="#D7E8F0"/>
<path fill-rule="evenodd" clip-rule="evenodd" d="M162.097 340.747V357.628H145.223V326.644H162.097V340.747ZM159.326 329.415H147.994V340.747H159.326V329.415ZM147.994 343.518H159.326V354.857H147.994V343.518Z" fill="#D7E8F0"/>
<path fill-rule="evenodd" clip-rule="evenodd" d="M133.146 340.747V357.628H116.272V326.644H133.146V340.747ZM130.375 329.415H119.043V340.747H130.375V329.415ZM119.043 343.518H130.375V354.857H119.043V343.518Z" fill="#D7E8F0"/>
<path fill-rule="evenodd" clip-rule="evenodd" d="M105.895 340.747V357.628H89.0208V326.644H105.895V340.747ZM103.124 329.415H91.7917V340.747H103.124V329.415ZM91.7917 343.518H103.124V354.857H91.7917V343.518Z" fill="#D7E8F0"/>
<path fill-rule="evenodd" clip-rule="evenodd" d="M191.87 382.427V399.3H174.989V368.324H191.87V382.427ZM189.099 371.095H177.767V382.427H189.099V371.095ZM177.767 385.205H189.099V396.537H177.767V385.205Z" fill="#D7E8F0"/>
<path fill-rule="evenodd" clip-rule="evenodd" d="M162.097 382.427V399.3H145.223V368.324H162.097V382.427ZM159.326 371.095H147.994V382.427H159.326V371.095ZM147.994 385.205H159.326V396.537H147.994V385.205Z" fill="#D7E8F0"/>
<path fill-rule="evenodd" clip-rule="evenodd" d="M133.146 382.427V399.3H116.272V368.324H133.146V382.427ZM130.375 371.095H119.043V382.427H130.375V371.095ZM119.043 385.205H130.375V396.537H119.043V385.205Z" fill="#D7E8F0"/>
<path fill-rule="evenodd" clip-rule="evenodd" d="M105.895 382.427V399.3H89.0208V368.324H105.895V382.427ZM103.124 371.095H91.7917V382.427H103.124V371.095ZM91.7917 385.205H103.124V396.537H91.7917V385.205Z" fill="#D7E8F0"/>
<path fill-rule="evenodd" clip-rule="evenodd" d="M191.87 424.138V441.011H174.989V410.004H191.87V424.138ZM189.099 412.806H177.767V424.138H189.099V412.806ZM177.767 426.909H189.099V438.241H177.767V426.909Z" fill="#D7E8F0"/>
<path fill-rule="evenodd" clip-rule="evenodd" d="M162.097 424.138V441.011H145.223V410.004H162.097V424.138ZM159.326 412.806H147.994V424.138H159.326V412.806ZM147.994 426.909H159.326V438.241H147.994V426.909Z" fill="#D7E8F0"/>
<path fill-rule="evenodd" clip-rule="evenodd" d="M133.146 424.138V441.011H116.272V410.004H133.146V424.138ZM130.375 412.806H119.043V424.138H130.375V412.806ZM119.043 426.909H130.375V438.241H119.043V426.909Z" fill="#D7E8F0"/>
<path fill-rule="evenodd" clip-rule="evenodd" d="M105.895 424.138V441.011H89.0208V410.004H105.895V424.138ZM103.124 412.806H91.7917V424.138H103.124V412.806ZM91.7917 426.909H103.124V438.241H91.7917V426.909Z" fill="#D7E8F0"/>
<path fill-rule="evenodd" clip-rule="evenodd" d="M191.87 465.786V482.668H174.989V451.684H191.87V465.786ZM189.099 454.462H177.767V465.786H189.099V454.462ZM177.767 468.565H189.099V479.897H177.767V468.565Z" fill="#D7E8F0"/>
<path fill-rule="evenodd" clip-rule="evenodd" d="M162.097 465.786V482.668H145.223V451.684H162.097V465.786ZM159.326 454.462H147.994V465.786H159.326V454.462ZM147.994 468.565H159.326V479.897H147.994V468.565Z" fill="#D7E8F0"/>
<path fill-rule="evenodd" clip-rule="evenodd" d="M133.146 465.786V482.668H116.272V451.684H133.146V465.786ZM130.375 454.462H119.043V465.786H130.375V454.462ZM119.043 468.565H130.375V479.897H119.043V468.565Z" fill="#D7E8F0"/>
<path fill-rule="evenodd" clip-rule="evenodd" d="M105.895 465.786V482.668H89.0208V451.684H105.895V465.786ZM103.124 454.462H91.7917V465.786H103.124V454.462ZM91.7917 468.565H103.124V479.897H91.7917V468.565Z" fill="#D7E8F0"/>
<path d="M507.496 598.882V468.262C507.497 450.053 513.86 432.416 525.487 418.401C529.638 413.398 535.801 410.503 542.302 410.503C548.804 410.503 554.967 413.398 559.118 418.401C570.745 432.416 577.108 450.053 577.109 468.262V599.123" stroke="#CCDDE2" stroke-width="4.01"/>
<g opacity="0.81">
<path fill-rule="evenodd" clip-rule="evenodd" d="M554.881 456.441H564.234V447.088H554.881V456.441Z" stroke="#CCDDE2" stroke-width="4.01"/>
<path fill-rule="evenodd" clip-rule="evenodd" d="M537.207 456.441H546.56V447.088H537.207V456.441Z" stroke="#CCDDE2" stroke-width="4.01"/>
<path fill-rule="evenodd" clip-rule="evenodd" d="M519.526 456.441H528.879V447.088H519.526V456.441Z" stroke="#CCDDE2" stroke-width="4.01"/>
</g>
<g opacity="0.46">
<path fill-rule="evenodd" clip-rule="evenodd" d="M554.881 478.166H564.234V468.813H554.881V478.166Z" stroke="#CCDDE2" stroke-width="4.01"/>
<path fill-rule="evenodd" clip-rule="evenodd" d="M537.207 478.166H546.56V468.813H537.207V478.166Z" stroke="#CCDDE2" stroke-width="4.01"/>
<path fill-rule="evenodd" clip-rule="evenodd" d="M519.526 478.166H528.879V468.813H519.526V478.166Z" stroke="#CCDDE2" stroke-width="4.01"/>
</g>
<g opacity="0.25">
<path fill-rule="evenodd" clip-rule="evenodd" d="M554.881 500.806H564.234V491.453H554.881V500.806Z" stroke="#CCDDE2" stroke-width="4.01"/>
<path fill-rule="evenodd" clip-rule="evenodd" d="M537.207 500.806H546.56V491.453H537.207V500.806Z" stroke="#CCDDE2" stroke-width="4.01"/>
<path fill-rule="evenodd" clip-rule="evenodd" d="M519.526 500.806H528.879V491.453H519.526V500.806Z" stroke="#CCDDE2" stroke-width="4.01"/>
</g>
<g opacity="0.25">
<path fill-rule="evenodd" clip-rule="evenodd" d="M554.881 520.257H564.234V510.904H554.881V520.257Z" stroke="#CCDDE2" stroke-width="4.01"/>
<path fill-rule="evenodd" clip-rule="evenodd" d="M537.207 520.257H546.56V510.904H537.207V520.257Z" stroke="#CCDDE2" stroke-width="4.01"/>
<path fill-rule="evenodd" clip-rule="evenodd" d="M519.526 520.257H528.879V510.904H519.526V520.257Z" stroke="#CCDDE2" stroke-width="4.01"/>
</g>
<path d="M680.378 599.48V379.951H590.048V599.169" stroke="#CCDDE2" stroke-width="4.01"/>
<path fill-rule="evenodd" clip-rule="evenodd" d="M599.029 398.113V409.647H610.562V388.473H599.029V398.113ZM600.93 390.351H608.669V398.113H600.907L600.93 390.351ZM608.669 399.991H600.93L600.907 407.753H608.669V399.991Z" fill="#D7E8F0"/>
<path fill-rule="evenodd" clip-rule="evenodd" d="M619.379 398.113V409.647H630.913V388.473H619.379V398.113ZM621.273 390.351H629.035V398.113H621.273V390.351ZM629.035 399.991H621.273V407.753H629.035V399.991Z" fill="#D7E8F0"/>
<path fill-rule="evenodd" clip-rule="evenodd" d="M639.164 398.113V409.647H650.697V388.473H639.164V398.113ZM641.057 390.351H648.819V398.113H641.057V390.351ZM648.819 399.991H641.057V407.753H648.819V399.991Z" fill="#D7E8F0"/>
<path fill-rule="evenodd" clip-rule="evenodd" d="M657.791 388.473V409.647H669.325V388.473H657.791ZM667.431 407.753H659.67V399.991H667.431V407.753ZM659.67 398.113H667.431V390.351H659.67V398.113Z" fill="#D7E8F0"/>
<path fill-rule="evenodd" clip-rule="evenodd" d="M599.029 426.598V438.108H610.562V416.966H599.029V426.598ZM600.93 418.836H608.669V426.598H600.907L600.93 418.836ZM608.669 428.476H600.93L600.907 436.238H608.669V428.476Z" fill="#D7E8F0"/>
<path fill-rule="evenodd" clip-rule="evenodd" d="M619.379 426.598V438.108H630.913V416.966H619.379V426.598ZM621.273 418.836H629.035V426.598H621.273V418.836ZM629.035 428.476H621.273V436.238H629.035V428.476Z" fill="#D7E8F0"/>
<path fill-rule="evenodd" clip-rule="evenodd" d="M639.164 426.598V438.108H650.697V416.966H639.164V426.598ZM641.057 418.836H648.819V426.598H641.057V418.836ZM648.819 428.476H641.057V436.238H648.819V428.476Z" fill="#D7E8F0"/>
<path fill-rule="evenodd" clip-rule="evenodd" d="M657.791 426.598V438.108H669.325V416.966H657.791V426.598ZM659.685 418.836H667.447V426.598H659.685V418.836ZM667.447 428.476H659.685V436.238H667.447V428.476Z" fill="#D7E8F0"/>
<path fill-rule="evenodd" clip-rule="evenodd" d="M599.029 455.091V466.625H610.562V445.451H599.029V455.091ZM600.93 447.329H608.669V455.091H600.907L600.93 447.329ZM608.669 456.969H600.93L600.907 464.731H608.669V456.969Z" fill="#D7E8F0"/>
<path fill-rule="evenodd" clip-rule="evenodd" d="M619.379 455.091V466.625H630.913V445.451H619.379V455.091ZM621.273 447.329H629.035V455.091H621.273V447.329ZM629.035 456.969H621.273V464.731H629.035V456.969Z" fill="#D7E8F0"/>
<path fill-rule="evenodd" clip-rule="evenodd" d="M639.164 455.091V466.625H650.697V445.451H639.164V455.091ZM641.057 447.329H648.819V455.091H641.057V447.329ZM648.819 456.969H641.057V464.731H648.819V456.969Z" fill="#D7E8F0"/>
<path fill-rule="evenodd" clip-rule="evenodd" d="M657.791 455.091V466.625H669.325V445.451H657.791V455.091ZM659.685 447.329H667.447V455.091H659.685V447.329ZM667.447 456.969H659.685V464.731H667.447V456.969Z" fill="#D7E8F0"/>
<path fill-rule="evenodd" clip-rule="evenodd" d="M599.029 483.576V495.11H610.562V473.936H599.029V483.576ZM600.93 475.814H608.669V483.576H600.907L600.93 475.814ZM608.669 485.454H600.907V493.216H608.669V485.454Z" fill="#D7E8F0"/>
<path fill-rule="evenodd" clip-rule="evenodd" d="M619.379 483.576V495.11H630.913V473.936H619.379V483.576ZM621.273 475.814H629.035V483.576H621.273V475.814ZM629.035 485.454H621.273V493.216H629.035V485.454Z" fill="#D7E8F0"/>
<path fill-rule="evenodd" clip-rule="evenodd" d="M639.164 483.576V495.11H650.697V473.936H639.164V483.576ZM641.057 475.814H648.819V483.576H641.057V475.814ZM648.819 485.454H641.057V493.216H648.819V485.454Z" fill="#D7E8F0"/>
<path fill-rule="evenodd" clip-rule="evenodd" d="M657.791 483.576V495.11H669.325V473.936H657.791V483.576ZM659.685 475.814H667.447V483.576H659.685V475.814ZM667.447 485.454H659.685V493.216H667.447V485.454Z" fill="#D7E8F0"/>
<path fill-rule="evenodd" clip-rule="evenodd" d="M599.029 512.061V523.595H610.562V502.421H599.029V512.061ZM600.93 504.3H608.669V512.061H600.907L600.93 504.3ZM608.669 513.94H600.93L600.907 521.701H608.669V513.94Z" fill="#D7E8F0"/>
<path fill-rule="evenodd" clip-rule="evenodd" d="M619.379 512.061V523.595H630.913V502.421H619.379V512.061ZM621.273 504.3H629.035V512.061H621.273V504.3ZM629.035 513.94H621.273V521.701H629.035V513.94Z" fill="#D7E8F0"/>
<path fill-rule="evenodd" clip-rule="evenodd" d="M639.164 512.061V523.595H650.697V502.421H639.164V512.061ZM641.057 504.3H648.819V512.061H641.057V504.3ZM648.819 513.94H641.057V521.701H648.819V513.94Z" fill="#D7E8F0"/>
<path fill-rule="evenodd" clip-rule="evenodd" d="M657.791 512.061V523.595H669.325V502.421H657.791V512.061ZM659.685 504.3H667.447V512.061H659.685V504.3ZM667.447 513.94H659.685V521.701H667.447V513.94Z" fill="#D7E8F0"/>
<path d="M445.628 359.755C445.628 359.755 447.825 389.638 480.928 386.874C480.928 386.874 469.332 416.609 461.011 421.871L419.207 448.331L409.195 401.521L445.628 359.755Z" fill="#2E2E2E"/>
<path d="M481.067 472.26L568.665 599.108L665.266 599.441V597.672C665.261 589.101 658.619 581.998 650.068 581.419L623.415 579.642L545.69 439.327C538.27 425.512 525.403 415.437 510.211 411.546C495.02 407.655 478.894 410.305 465.746 418.852L465.078 419.287L420.341 447.57L452.085 524.068L492.391 488.707" fill="white"/>
<path d="M184.816 546.142C192.88 568.589 207.635 572.229 224.889 571.073C233.915 559.244 244.611 543.131 253.257 531.093C263.306 517.044 273.37 503.016 283.45 489.009C286.019 485.408 288.588 481.83 291.212 478.228V532.195C291.202 534.98 291.386 537.763 291.763 540.523C340.925 582.537 411.144 529.82 420.722 522.206C421.443 521.655 421.8 521.344 421.8 521.344C426.388 488.101 421.436 462.961 420.38 443.953C418.936 418.557 414.233 410.485 410.057 402.677L408.326 398.3C405.082 392.253 405.222 390.747 404.787 390.46L404.919 389.35C404.919 389.35 403.235 387.457 403.235 387.41C393.75 371.755 386.446 358.692 370.745 349.277C376.178 353.282 379.934 362.984 374.175 368.285C367.477 374.456 358.357 367.16 352.862 362.852C345.839 357.55 339.676 351.196 334.591 344.015C332.984 341.686 330.966 339.21 331.277 336.253C319.898 336.09 310.274 340.134 298.538 346.918C283.698 355.51 271.87 368.472 263.798 383.622L184.816 546.142Z" fill="#2E2E2E"/>
<path d="M326.611 305.587V305.804C326.611 315.235 334.256 322.88 343.687 322.88C346.589 322.893 349.444 322.146 351.968 320.714C352.695 320.337 353.386 319.895 354.033 319.395C354.571 318.955 354.86 318.28 354.807 317.587C354.755 316.895 354.367 316.271 353.769 315.918C350.269 313.806 346.978 310.733 345.798 306.914C345.438 305.742 345.317 304.509 345.441 303.289C345.65 300.118 347.535 297.299 350.385 295.893C350.825 295.726 351.284 295.613 351.751 295.559C353.071 295.342 354.856 295.365 355.259 296.335C353.178 291.709 352.679 286.526 353.839 281.588C354.562 278.524 355.974 275.665 357.968 273.229C357.91 275.007 358.647 276.719 359.98 277.897C361.313 279.076 363.103 279.598 364.86 279.322C371.605 278.545 372.35 271.979 372.35 271.979C372.35 271.979 372.397 272.049 372.397 272.096C375.952 279.205 384.567 278.701 390.45 274.929C392.535 273.633 394.318 271.908 395.682 269.868C396.815 262.184 389.992 255.416 382.743 254.958C382.192 250.185 378.28 245.334 373.53 245.334C370.168 245.324 367.066 247.144 365.435 250.084C365.31 250.31 365.198 250.543 365.101 250.782C362.943 248.143 359.528 245.349 356.144 245.349C351.284 245.356 346.96 248.44 345.371 253.033C345.371 252.692 342.266 251.589 341.964 251.481C340.703 251.114 339.395 250.937 338.083 250.953C333.433 251.075 329.165 253.551 326.751 257.527C326.632 258.209 326.574 258.9 326.58 259.592C326.578 261.66 327.065 263.7 328.001 265.545C326.935 265.94 325.955 266.536 325.113 267.299C323.303 268.88 322.188 271.111 322.009 273.508V274.23C322.005 276.042 322.546 277.813 323.561 279.314C322.444 279.736 321.388 280.303 320.417 280.998C317.526 283.082 315.573 286.223 314.984 289.738C314.854 290.507 314.789 291.286 314.79 292.066C314.791 298.896 319.842 304.674 326.611 305.587Z" fill="#23CDAB"/>
<path d="M326.611 305.587V305.804C326.611 315.235 334.256 322.88 343.687 322.88C346.589 322.893 349.444 322.146 351.968 320.714C348.468 318.603 345.177 315.529 343.997 311.718C343.144 308.837 343.677 305.723 345.441 303.289C345.65 300.118 347.535 297.299 350.385 295.893C350.825 295.726 351.284 295.613 351.751 295.559C350.909 290.799 351.642 285.894 353.839 281.588C354.562 278.524 355.974 275.665 357.968 273.229C357.91 275.007 358.647 276.719 359.98 277.897C361.313 279.076 363.103 279.598 364.86 279.322C371.605 278.545 372.35 271.979 372.35 271.979C372.35 271.979 372.397 272.049 372.397 272.096C375.952 279.205 384.567 278.701 390.45 274.929C392.535 273.633 394.318 271.908 395.682 269.868C396.815 262.184 389.992 255.416 382.743 254.958C382.192 250.185 378.28 245.334 373.53 245.334C370.168 245.324 367.066 247.144 365.435 250.084C365.31 250.31 365.198 250.543 365.101 250.782C362.943 248.143 359.528 245.349 356.144 245.349C351.284 245.356 346.96 248.44 345.371 253.033C345.371 252.692 342.266 251.589 341.964 251.481C340.703 251.114 339.395 250.937 338.083 250.953C333.433 251.075 329.165 253.551 326.751 257.527C326.632 258.209 326.574 258.9 326.58 259.592C326.578 261.66 327.065 263.7 328.001 265.545C326.935 265.94 325.955 266.536 325.113 267.299C325.342 268.358 325.707 269.384 326.2 270.349C324.531 270.982 323.073 272.071 321.993 273.493V274.214C321.99 276.026 322.53 277.797 323.545 279.298C322.429 279.721 321.372 280.287 320.402 280.983C320.663 282.088 321.118 283.139 321.745 284.087C318.904 285.138 316.503 287.119 314.93 289.707C314.8 290.476 314.735 291.255 314.736 292.035C314.725 298.895 319.809 304.697 326.611 305.587Z" fill="#23CDAB"/>
<path d="M370.697 757.995H481.067V755.861C481.073 747.09 474.138 739.887 465.373 739.561L439.325 738.482H377.823L370.697 757.995Z" fill="#23CDAB"/>
<path d="M568.665 599.107L665.266 598.867V596.732C665.272 587.959 658.332 580.755 649.564 580.433L623.516 579.37L555.765 580.448L568.665 599.107Z" fill="#23CDAB"/>
<path d="M408.791 598.556H357.564C324.185 598.464 296.035 573.664 291.738 540.562C291.362 537.799 291.178 535.014 291.187 532.226V478.244" stroke="black" stroke-width="4.01"/>
<path d="M390.187 521.158L420.217 522.19H420.721L439.683 522.57C443.86 522.654 448.02 523.145 452.102 524.037C485.95 531.356 507.581 565.275 500.355 598.836C499.291 603.836 497.623 608.689 495.388 613.288L439.326 738.483L465.374 739.538C474.139 739.864 481.074 747.067 481.068 755.837V757.972H370.698L377.823 738.483L429.112 598.362" stroke="black" stroke-width="4.01"/>
<path d="M481.068 472.291L568.665 599.107" stroke="black" stroke-width="4.01"/>
<path d="M452.117 524.068L492.423 488.707" stroke="black" stroke-width="4.01"/>
<path d="M367.259 598.51L367.523 598.269" stroke="black" stroke-width="4.01"/>
<path d="M465.11 419.287L491.274 365.685" stroke="black" stroke-width="4.01"/>
<path d="M147.086 598.362C147.086 598.409 147.04 598.432 147.016 598.486H169.168" stroke="black" stroke-width="4.01"/>
<path d="M402.838 598.603C402.838 598.486 402.908 598.362 402.931 598.269" stroke="black" stroke-width="4.01"/>
<path d="M331.269 336.959C323.044 336.74 314.88 338.419 307.409 341.865C289.988 349.976 275.487 363.255 265.877 379.897C255.29 398.361 246.721 418.285 237.314 437.332C225.527 461.269 213.724 485.196 201.906 509.112C196.214 520.656 190.522 532.202 184.83 543.752L172.753 568.209C170.271 572.295 166.774 575.669 162.601 578.004C158.432 580.329 153.738 581.552 148.964 581.558C139.198 581.557 130.319 587.223 126.207 596.08L125.151 598.362H154.281" stroke="black" stroke-width="4.01"/>
<path d="M420.209 522.205C423.632 500.256 422.91 478.158 421.179 456.084C418.075 416.632 406.075 377.102 373.903 351.582C373.073 350.922 372.235 350.27 371.365 349.665" stroke="black" stroke-width="4.01"/>
<path d="M340.59 389.35C341.195 412.588 321.364 436.137 321.364 436.137C321.364 436.137 321.318 436.184 321.318 436.207C311.259 450.178 301.215 464.19 291.187 478.244C288.595 481.845 286.026 485.423 283.426 489.017C273.341 503.039 263.277 517.067 253.233 531.1C244.649 543.177 236.553 555.852 227.527 567.727C225.198 570.77 222.823 573.75 220.324 576.653C217.134 580.379 213.843 584.624 209.954 587.628C206.066 590.632 201.556 593.434 197.536 596.6C194.167 599.427 191.283 602.786 188.998 606.543C186.499 610.812 186.235 615.64 184.101 619.908C180.359 627.453 171.115 626.203 167.949 619C163.556 609.011 173.157 587.411 173.157 587.411" stroke="black" stroke-width="4.01"/>
<path d="M46.7287 598.487H169.168" stroke="black" stroke-width="4.01"/>
<path d="M420.372 447.57L465.079 419.286L465.746 418.852C478.894 410.305 495.02 407.655 510.211 411.546C525.403 415.436 538.27 425.512 545.691 439.327L623.415 579.641L650.084 581.418C658.635 581.998 665.276 589.101 665.281 597.671V599.441" stroke="black" stroke-width="4.01"/>
<path d="M502.389 323.578C498.695 324.3 497.297 324.06 494.627 324.587C494.208 324.652 493.796 324.433 493.616 324.048C493.436 323.663 493.532 323.206 493.851 322.926L502.684 314.389C505.103 312.328 506.773 309.526 507.434 306.417L507.512 306.107C506.892 303.956 505.153 302.312 502.971 301.815C501.094 301.511 499.168 301.759 497.429 302.529C494.55 303.662 490.685 304.671 487.006 305.936C481.917 307.73 477.642 311.291 474.96 315.972L474.618 316.577C464.044 334.953 451.945 352.408 438.449 368.759L409.731 404.051" stroke="black" stroke-width="4.01"/>
<path d="M497.802 369.302C501.181 369.302 504.165 367.098 505.16 363.869L512.549 341.089L519.069 319.566L527.568 291.857C528.236 289.677 527.81 287.308 526.424 285.498C525.037 283.688 522.861 282.659 520.582 282.737C517.606 282.824 515.006 284.772 514.086 287.604L502.374 323.579L490.46 359.212C489.696 361.561 490.104 364.133 491.557 366.13C493.01 368.127 495.332 369.306 497.802 369.302Z" fill="#23CDAB"/>
<path fill-rule="evenodd" clip-rule="evenodd" d="M497.802 369.302C501.181 369.302 504.165 367.098 505.16 363.869L512.549 341.089L519.069 319.566L527.568 291.857C528.236 289.677 527.81 287.308 526.424 285.498C525.037 283.688 522.861 282.659 520.582 282.737C517.606 282.824 515.006 284.772 514.086 287.604L502.374 323.579L490.46 359.212C489.696 361.561 490.104 364.133 491.557 366.13C493.01 368.127 495.332 369.306 497.802 369.302V369.302Z" stroke="black" stroke-width="4.01"/>
<path d="M528.002 334.429V334.429C529.848 334.355 531.636 333.763 533.163 332.722C534.847 331.471 535.953 329.592 536.229 327.513C536.506 325.434 535.929 323.332 534.63 321.685C533.474 320.26 531.917 319.216 530.159 318.689C527.91 317.951 525.48 317.983 523.251 318.782C520.879 319.81 518.937 321.628 517.756 323.928" stroke="black" stroke-width="4.01"/>
<path d="M523.415 349.239C525.27 349.222 527.082 348.684 528.646 347.686C530.361 346.478 531.513 344.627 531.84 342.555C532.168 340.483 531.643 338.367 530.385 336.688C529.261 335.234 527.725 334.152 525.976 333.583C523.752 332.79 521.326 332.763 519.084 333.506C516.856 334.282 514.66 335.664 513.581 337.72" stroke="black" stroke-width="4.01"/>
<path d="M509.319 351.101C512.064 347.462 516.96 346.206 521.117 348.074C522.655 348.735 523.96 349.841 524.866 351.248C525.873 352.866 526.184 354.822 525.728 356.672C525.272 358.523 524.088 360.11 522.444 361.075L521.389 361.641C521.389 361.641 515.055 364.187 504.492 365.406" stroke="black" stroke-width="4.01"/>
<path d="M438.813 598.626H402.838C391.025 598.58 379.142 598.556 367.259 598.533C308.426 598.386 249.376 598.292 195.728 598.269" stroke="black" stroke-width="4.01"/>
<path d="M169.245 598.246H125.19C98.8008 598.293 75.0193 598.363 54.8547 598.464" stroke="black" stroke-width="4.01"/>
<path d="M745.272 599.76C743.86 599.76 635.353 599.279 500.371 598.867" stroke="black" stroke-width="4.01"/>
<path d="M331.269 336.261C330.959 339.241 332.977 341.74 334.583 344.022C339.668 351.204 345.831 357.558 352.854 362.86C358.349 367.136 367.469 374.432 374.168 368.293C379.927 362.992 376.209 353.29 370.737 349.285L370.667 349.238" stroke="black" stroke-width="4.01"/>
<path d="M385.049 285.283C385.049 285.283 375.316 286.222 373.763 294.597" stroke="black" stroke-width="4.01"/>
<path d="M389.582 309.701C391.844 310.063 394.155 309.987 396.389 309.476C397.244 309.266 397.94 308.648 398.251 307.824C398.561 307 398.445 306.076 397.941 305.354C395.613 302.087 393.284 298.858 390.715 295.784C390.319 295.397 390.048 294.899 389.939 294.356C389.939 294.356 390.04 284.119 387.346 276.504" stroke="black" stroke-width="4.01"/>
<ellipse cx="3.00374" cy="2.55357" rx="3.00374" ry="2.55357" transform="matrix(-0.205692 -0.978617 -0.978617 0.205692 386.213 296.252)" fill="black"/>
<path d="M331.269 336.959C334.847 326.582 336.492 321.281 336.492 321.281" stroke="black" stroke-width="4.01" stroke-linecap="round" stroke-linejoin="round"/>
<path d="M370.659 333.49L370.713 369.302" stroke="black" stroke-width="4.01"/>
<path d="M393.152 309.926C393.152 309.926 390.653 330.525 380.656 334.429C370.659 338.333 360.732 326.287 360.732 326.287" stroke="black" stroke-width="4.01" stroke-linecap="round" stroke-linejoin="round"/>
<path d="M391.103 319.294C388.471 321.135 385.087 321.524 382.107 320.326" stroke="black" stroke-width="4.01" stroke-linecap="round" stroke-linejoin="round"/>
<path d="M366.033 249.797C366.03 248.215 366.442 246.66 367.228 245.287C369.323 241.661 373.58 239.878 377.633 240.93C381.687 241.982 384.54 245.609 384.606 249.797" stroke="black" stroke-width="4.01" stroke-linecap="round"/>
<path d="M371.163 263.472C371.182 258.924 373.448 254.679 377.217 252.133C386.531 245.861 399.951 255.439 397.289 266.236C396.357 270 393.649 272.895 390.459 274.936C384.583 278.708 375.96 279.228 372.421 272.111L372.366 271.995C372.366 271.995 371.59 278.545 364.876 279.337C363.119 279.607 361.333 279.083 360 277.906C358.667 276.729 357.926 275.022 357.976 273.244C352.644 279.71 351.852 288.768 355.252 296.335C354.639 294.969 351.286 295.505 350.378 295.908C346.326 297.701 344.51 302.8 345.783 306.914C346.97 310.748 350.261 313.799 353.746 315.933C354.345 316.283 354.735 316.905 354.789 317.597C354.843 318.289 354.555 318.963 354.018 319.403C348.855 323.326 341.915 323.986 336.105 321.106C330.294 318.227 326.617 312.304 326.612 305.82V305.602C320.396 304.824 315.512 299.907 314.776 293.685C314.041 287.464 317.644 281.543 323.507 279.337C322.492 277.836 321.951 276.065 321.955 274.253C321.955 269.109 326.125 264.939 331.269 264.939" stroke="black" stroke-width="4.01" stroke-linecap="round" stroke-linejoin="round"/>
<path d="M366.033 245.008C363.945 242.128 361.757 240.529 357.938 240.529C353.069 240.533 348.74 243.63 347.165 248.237C347.266 247.926 344.06 246.777 343.742 246.684C342.481 246.32 341.174 246.142 339.861 246.156C332.549 246.359 326.691 252.278 326.565 259.592C326.567 261.66 327.054 263.699 327.986 265.545" stroke="black" stroke-width="4.01" stroke-linecap="square" stroke-linejoin="round"/>
<path d="M326.612 305.587V305.804C326.612 315.235 334.257 322.88 343.688 322.88C346.59 322.893 349.445 322.146 351.969 320.714C352.696 320.337 353.387 319.895 354.034 319.395C354.572 318.955 354.861 318.28 354.808 317.587C354.756 316.895 354.368 316.271 353.77 315.918C350.27 313.806 346.979 310.733 345.799 306.914C345.439 305.742 345.318 304.509 345.442 303.289C345.651 300.118 347.536 297.299 350.386 295.893C350.826 295.726 351.285 295.613 351.752 295.559C353.072 295.342 354.857 295.365 355.26 296.335C353.179 291.709 352.68 286.526 353.84 281.588C354.562 278.524 355.975 275.665 357.969 273.229C357.91 275.007 358.648 276.719 359.981 277.897C361.314 279.076 363.104 279.598 364.861 279.322C371.606 278.545 372.351 271.979 372.351 271.979C372.351 271.979 372.398 272.049 372.398 272.096C375.953 279.205 384.568 278.701 390.451 274.929C392.536 273.633 394.319 271.908 395.683 269.868C396.816 262.184 389.993 255.416 382.744 254.958C382.193 250.185 378.281 245.334 373.531 245.334C370.169 245.324 367.067 247.144 365.436 250.084C365.311 250.31 365.199 250.543 365.102 250.782C362.944 248.143 359.529 245.349 356.145 245.349C351.285 245.356 346.961 248.44 345.372 253.033C345.372 252.692 342.267 251.589 341.965 251.481C340.704 251.114 339.396 250.937 338.084 250.953C333.434 251.075 329.166 253.551 326.752 257.527C326.632 258.209 326.575 258.9 326.581 259.592C326.579 261.66 327.066 263.7 328.002 265.545C326.936 265.94 325.956 266.536 325.114 267.299C323.304 268.88 322.189 271.111 322.01 273.508V274.23C322.006 276.042 322.547 277.813 323.562 279.314C322.445 279.736 321.389 280.303 320.418 280.998C317.527 283.082 315.574 286.223 314.985 289.738C314.855 290.507 314.79 291.286 314.791 292.066C314.792 298.896 319.843 304.674 326.612 305.587Z" fill="#23CDAB"/>
<path d="M326.612 305.587V305.804C326.612 315.235 334.257 322.88 343.688 322.88C346.59 322.893 349.445 322.146 351.969 320.714C348.469 318.603 345.178 315.529 343.998 311.718C343.145 308.837 343.678 305.723 345.442 303.289C345.651 300.118 347.536 297.299 350.386 295.893C350.826 295.726 351.285 295.613 351.752 295.559C350.91 290.799 351.643 285.894 353.84 281.588C354.562 278.524 355.975 275.665 357.969 273.229C357.91 275.007 358.648 276.719 359.981 277.897C361.314 279.076 363.104 279.598 364.861 279.322C371.606 278.545 372.351 271.979 372.351 271.979C372.351 271.979 372.398 272.049 372.398 272.096C375.953 279.205 384.568 278.701 390.451 274.929C392.536 273.633 394.319 271.908 395.683 269.868C396.816 262.184 389.993 255.416 382.744 254.958C382.193 250.185 378.281 245.334 373.531 245.334C370.169 245.324 367.067 247.144 365.436 250.084C365.311 250.31 365.199 250.543 365.102 250.782C362.944 248.143 359.529 245.349 356.145 245.349C351.285 245.356 346.961 248.44 345.372 253.033C345.372 252.692 342.267 251.589 341.965 251.481C340.704 251.114 339.396 250.937 338.084 250.953C333.434 251.075 329.166 253.551 326.752 257.527C326.632 258.209 326.575 258.9 326.581 259.592C326.579 261.66 327.066 263.7 328.002 265.545C326.936 265.94 325.956 266.536 325.114 267.299C325.343 268.358 325.708 269.384 326.201 270.349C324.532 270.982 323.074 272.071 321.994 273.493V274.214C321.99 276.026 322.531 277.797 323.546 279.298C322.43 279.721 321.373 280.287 320.403 280.983C320.664 282.088 321.119 283.139 321.746 284.087C318.905 285.138 316.504 287.119 314.931 289.707C314.801 290.476 314.736 291.255 314.737 292.035C314.726 298.895 319.81 304.697 326.612 305.587Z" fill="#23CDAB"/>
<path d="M385.049 285.283C385.049 285.283 375.316 286.222 373.763 294.597" stroke="black" stroke-width="4.01"/>
<path d="M389.582 309.701C391.844 310.063 394.155 309.987 396.389 309.476C397.244 309.266 397.94 308.648 398.251 307.824C398.561 307 398.445 306.076 397.941 305.354C395.613 302.087 393.284 298.858 390.715 295.784C390.319 295.397 390.048 294.899 389.939 294.356C389.939 294.356 390.04 284.119 387.346 276.504" stroke="black" stroke-width="4.01"/>
<ellipse cx="3.00374" cy="2.55357" rx="3.00374" ry="2.55357" transform="matrix(-0.205692 -0.978617 -0.978617 0.205692 386.213 296.252)" fill="black"/>
<path d="M331.269 336.959C334.847 326.582 336.492 321.281 336.492 321.281" stroke="black" stroke-width="4.01" stroke-linecap="round" stroke-linejoin="round"/>
<path d="M370.659 333.49L370.713 369.302" stroke="black" stroke-width="4.01"/>
<path d="M393.152 309.926C393.152 309.926 390.653 330.525 380.656 334.429C370.659 338.333 360.732 326.287 360.732 326.287" stroke="black" stroke-width="4.01" stroke-linecap="round" stroke-linejoin="round"/>
<path d="M391.103 319.294C388.471 321.135 385.087 321.524 382.107 320.326" stroke="black" stroke-width="4.01" stroke-linecap="round" stroke-linejoin="round"/>
<path d="M366.033 249.797C366.03 248.215 366.442 246.66 367.228 245.287C369.323 241.661 373.58 239.878 377.633 240.93C381.687 241.982 384.54 245.609 384.606 249.797" stroke="black" stroke-width="4.01" stroke-linecap="round"/>
<path d="M371.163 263.472C371.182 258.924 373.448 254.679 377.217 252.133C386.531 245.861 399.951 255.439 397.289 266.236C396.357 270 393.649 272.895 390.459 274.936C384.583 278.708 375.96 279.228 372.421 272.111L372.366 271.995C372.366 271.995 371.59 278.545 364.876 279.337C363.119 279.607 361.333 279.083 360 277.906C358.667 276.729 357.926 275.022 357.976 273.244C352.644 279.71 351.852 288.768 355.252 296.335C354.639 294.969 351.286 295.505 350.378 295.908C346.326 297.701 344.51 302.8 345.783 306.914C346.97 310.748 350.261 313.799 353.746 315.933C354.345 316.283 354.735 316.905 354.789 317.597C354.843 318.289 354.555 318.963 354.018 319.403C348.855 323.326 341.915 323.986 336.105 321.106C330.294 318.227 326.617 312.304 326.612 305.82V305.602C320.396 304.824 315.512 299.907 314.776 293.685C314.041 287.464 317.644 281.543 323.507 279.337C322.492 277.836 321.951 276.065 321.955 274.253C321.955 269.109 326.125 264.939 331.269 264.939" stroke="black" stroke-width="4.01" stroke-linecap="round" stroke-linejoin="round"/>
<path d="M366.033 245.008C363.945 242.128 361.757 240.529 357.938 240.529C353.069 240.533 348.74 243.63 347.165 248.237C347.266 247.926 344.06 246.777 343.742 246.684C342.481 246.32 341.174 246.142 339.861 246.156C332.549 246.359 326.691 252.278 326.565 259.592C326.567 261.66 327.054 263.699 327.986 265.545" stroke="black" stroke-width="4.01" stroke-linecap="square" stroke-linejoin="round"/>
<g opacity="0.3">
<rect x="474.266" y="183.266" width="172.468" height="59.6185" rx="5.58923" stroke="#D9D9D9" stroke-width="0.532308"/>
<rect x="483.049" y="192.049" width="154.902" height="10.6462" rx="5.32308" fill="#D9D9D9"/>
<rect x="483.049" y="208.018" width="154.902" height="10.6462" rx="5.32308" fill="#D9D9D9"/>
<rect x="483.049" y="223.987" width="35.1323" height="10.6462" rx="5.32308" fill="#D9D9D9"/>
<rect x="562.896" y="223.987" width="35.1323" height="10.6462" rx="5.32308" fill="#D9D9D9"/>
<rect x="522.973" y="223.987" width="35.1323" height="10.6462" rx="5.32308" fill="#D9D9D9"/>
<rect x="602.818" y="223.987" width="35.1323" height="10.6462" rx="5.32308" fill="#D9D9D9"/>
</g>
<g opacity="0.3">
<rect x="175.355" y="123.355" width="230.289" height="79.6062" rx="7.46308" stroke="#D9D9D9" stroke-width="0.710769"/>
<rect x="187.083" y="135.083" width="206.834" height="14.2154" rx="7.10769" fill="#D9D9D9"/>
<rect x="187.083" y="156.406" width="206.834" height="14.2154" rx="7.10769" fill="#D9D9D9"/>
<rect x="187.083" y="177.729" width="46.9108" height="14.2154" rx="7.10769" fill="#D9D9D9"/>
<rect x="293.698" y="177.729" width="46.9108" height="14.2154" rx="7.10769" fill="#D9D9D9"/>
<rect x="240.391" y="177.729" width="46.9108" height="14.2154" rx="7.10769" fill="#D9D9D9"/>
<rect x="347.006" y="177.729" width="46.9108" height="14.2154" rx="7.10769" fill="#D9D9D9"/>
</g>
</svg>
