<svg width="201" height="141" viewBox="0 0 201 141" fill="none" xmlns="http://www.w3.org/2000/svg">
<path d="M162.5 0H42.5C36.9772 0 32.5 4.47715 32.5 10V130C32.5 135.523 36.9772 140 42.5 140H162.5C168.023 140 172.5 135.523 172.5 130V10C172.5 4.47715 168.023 0 162.5 0Z" fill="#F2F2FF"/>
<g filter="url(#filter0_d_83_5650)">
<path d="M54.5 54H189.5C190.826 54 192.098 54.5268 193.036 55.4645C193.973 56.4021 194.5 57.6739 194.5 59V84C194.5 85.3261 193.973 86.5979 193.036 87.5355C192.098 88.4732 190.826 89 189.5 89H54.5C53.1739 89 51.9021 88.4732 50.9645 87.5355C50.0268 86.5979 49.5 85.3261 49.5 84V59C49.5 57.6739 50.0268 56.4021 50.9645 55.4645C51.9021 54.5268 53.1739 54 54.5 54V54Z" fill="white"/>
</g>
<path d="M128.5 62H102.5C100.843 62 99.5 63.3431 99.5 65C99.5 66.6569 100.843 68 102.5 68H128.5C130.157 68 131.5 66.6569 131.5 65C131.5 63.3431 130.157 62 128.5 62Z" fill="#DDDDDD"/>
<path d="M146.5 75H102.5C100.843 75 99.5 76.3431 99.5 78C99.5 79.6569 100.843 81 102.5 81H146.5C148.157 81 149.5 79.6569 149.5 78C149.5 76.3431 148.157 75 146.5 75Z" fill="#F3F3F3"/>
<path d="M80 81C85.2467 81 89.5 76.7467 89.5 71.5C89.5 66.2533 85.2467 62 80 62C74.7533 62 70.5 66.2533 70.5 71.5C70.5 76.7467 74.7533 81 80 81Z" fill="#4A7EFB"/>
<path d="M79.203 74H79.987L78.167 69.177H77.362L75.542 74H76.333L76.795 72.796H78.741L79.203 74ZM77.768 70.108L78.489 72.131H77.047L77.768 70.108ZM82.5872 69.863C83.1122 69.863 83.3292 70.304 83.3292 70.71C83.3292 71.123 83.0912 71.55 82.5592 71.55H81.4112V69.863H82.5872ZM80.6622 74H81.4112V72.229H82.6012C83.6372 72.229 84.0712 71.473 84.0712 70.71C84.0712 69.947 83.6372 69.177 82.6012 69.177H80.6622V74Z" fill="white"/>
<g filter="url(#filter1_d_83_5650)">
<path d="M11.5 97H146.5C147.826 97 149.098 97.5268 150.036 98.4645C150.973 99.4021 151.5 100.674 151.5 102V127C151.5 128.326 150.973 129.598 150.036 130.536C149.098 131.473 147.826 132 146.5 132H11.5C10.1739 132 8.90215 131.473 7.96447 130.536C7.02678 129.598 6.5 128.326 6.5 127V102C6.5 100.674 7.02678 99.4021 7.96447 98.4645C8.90215 97.5268 10.1739 97 11.5 97V97Z" fill="white"/>
</g>
<path d="M85.5 105H59.5C57.8431 105 56.5 106.343 56.5 108C56.5 109.657 57.8431 111 59.5 111H85.5C87.1569 111 88.5 109.657 88.5 108C88.5 106.343 87.1569 105 85.5 105Z" fill="#DDDDDD"/>
<path d="M103.5 118H59.5C57.8431 118 56.5 119.343 56.5 121C56.5 122.657 57.8431 124 59.5 124H103.5C105.157 124 106.5 122.657 106.5 121C106.5 119.343 105.157 118 103.5 118Z" fill="#F3F3F3"/>
<path d="M24 124C29.2467 124 33.5 119.747 33.5 114.5C33.5 109.253 29.2467 105 24 105C18.7533 105 14.5 109.253 14.5 114.5C14.5 119.747 18.7533 124 24 124Z" fill="#4A7EFB"/>
<path d="M20.423 117.631C21.515 117.631 21.928 116.91 21.928 116.056V111.177H21.207V116.056C21.207 116.532 20.99 116.938 20.423 116.938C20.367 116.938 20.052 116.924 19.933 116.882L19.863 117.554C20.045 117.596 20.29 117.631 20.423 117.631ZM24.6431 116.07C25.6161 116.07 26.2741 115.433 26.2741 114.628C26.2741 113.921 25.7631 113.48 24.9511 113.277L24.3421 113.123C23.7331 112.969 23.6841 112.647 23.6841 112.493C23.6841 112.052 24.0901 111.779 24.5451 111.779C25.0421 111.779 25.3991 112.087 25.3991 112.542H26.1131C26.1131 111.667 25.4341 111.121 24.5661 111.121C23.7121 111.121 22.9631 111.66 22.9631 112.507C22.9631 112.906 23.1311 113.515 24.1601 113.774L24.7761 113.928C25.1681 114.033 25.5531 114.236 25.5531 114.663C25.5531 115.062 25.2171 115.412 24.6431 115.412C24.0411 115.412 23.6561 115.013 23.6421 114.6H22.9281C22.9281 115.377 23.6141 116.07 24.6431 116.07Z" fill="white"/>
<g filter="url(#filter2_d_83_5650)">
<path d="M146.5 11H11.5C8.73858 11 6.5 13.2386 6.5 16V41C6.5 43.7614 8.73858 46 11.5 46H146.5C149.261 46 151.5 43.7614 151.5 41V16C151.5 13.2386 149.261 11 146.5 11Z" fill="white"/>
</g>
<path d="M83.5 19H57.5C55.8431 19 54.5 20.3431 54.5 22C54.5 23.6569 55.8431 25 57.5 25H83.5C85.1569 25 86.5 23.6569 86.5 22C86.5 20.3431 85.1569 19 83.5 19Z" fill="#DDDDDD"/>
<path d="M101.5 32H57.5C55.8431 32 54.5 33.3431 54.5 35C54.5 36.6569 55.8431 38 57.5 38H101.5C103.157 38 104.5 36.6569 104.5 35C104.5 33.3431 103.157 32 101.5 32Z" fill="#F3F3F3"/>
<path d="M37 38C42.2467 38 46.5 33.7467 46.5 28.5C46.5 23.2533 42.2467 19 37 19C31.7533 19 27.5 23.2533 27.5 28.5C27.5 33.7467 31.7533 38 37 38Z" fill="#4A7EFB"/>
<path d="M32.3246 28.6C32.3246 29.384 33.0246 30.07 34.0256 30.07C34.9426 30.07 35.5936 29.531 35.6706 28.775C35.7476 28.075 35.3486 27.536 34.3686 27.277L33.7526 27.116C33.1786 26.969 33.1086 26.675 33.1086 26.486C33.1086 26.094 33.4936 25.821 33.9416 25.821C34.4456 25.821 34.7816 26.101 34.7816 26.549H35.5236C35.5236 25.667 34.8516 25.121 33.9556 25.121C33.1086 25.121 32.3666 25.674 32.3666 26.5C32.3666 26.927 32.5276 27.515 33.5636 27.795L34.1726 27.949C34.6206 28.054 34.9636 28.285 34.9356 28.733C34.8866 29.09 34.5926 29.391 34.0256 29.391C33.4446 29.391 33.0876 28.992 33.0666 28.6H32.3246ZM37.3661 25.87H38.5001C39.4451 25.87 39.9281 26.647 39.9281 27.599C39.9281 28.558 39.4451 29.314 38.5001 29.314H37.3661V25.87ZM38.5001 30C39.8721 30 40.6701 28.971 40.6701 27.599C40.6701 26.227 39.8721 25.177 38.5001 25.177H36.6241V30H38.5001Z" fill="white"/>
<defs>
<filter id="filter0_d_83_5650" x="43.5" y="51" width="157" height="47" filterUnits="userSpaceOnUse" color-interpolation-filters="sRGB">
<feFlood flood-opacity="0" result="BackgroundImageFix"/>
<feColorMatrix in="SourceAlpha" type="matrix" values="0 0 0 0 0 0 0 0 0 0 0 0 0 0 0 0 0 0 127 0" result="hardAlpha"/>
<feOffset dy="3"/>
<feGaussianBlur stdDeviation="3"/>
<feColorMatrix type="matrix" values="0 0 0 0 0 0 0 0 0 0 0 0 0 0 0 0 0 0 0.161 0"/>
<feBlend mode="normal" in2="BackgroundImageFix" result="effect1_dropShadow_83_5650"/>
<feBlend mode="normal" in="SourceGraphic" in2="effect1_dropShadow_83_5650" result="shape"/>
</filter>
<filter id="filter1_d_83_5650" x="0.5" y="94" width="157" height="47" filterUnits="userSpaceOnUse" color-interpolation-filters="sRGB">
<feFlood flood-opacity="0" result="BackgroundImageFix"/>
<feColorMatrix in="SourceAlpha" type="matrix" values="0 0 0 0 0 0 0 0 0 0 0 0 0 0 0 0 0 0 127 0" result="hardAlpha"/>
<feOffset dy="3"/>
<feGaussianBlur stdDeviation="3"/>
<feColorMatrix type="matrix" values="0 0 0 0 0 0 0 0 0 0 0 0 0 0 0 0 0 0 0.161 0"/>
<feBlend mode="normal" in2="BackgroundImageFix" result="effect1_dropShadow_83_5650"/>
<feBlend mode="normal" in="SourceGraphic" in2="effect1_dropShadow_83_5650" result="shape"/>
</filter>
<filter id="filter2_d_83_5650" x="0.5" y="8" width="157" height="47" filterUnits="userSpaceOnUse" color-interpolation-filters="sRGB">
<feFlood flood-opacity="0" result="BackgroundImageFix"/>
<feColorMatrix in="SourceAlpha" type="matrix" values="0 0 0 0 0 0 0 0 0 0 0 0 0 0 0 0 0 0 127 0" result="hardAlpha"/>
<feOffset dy="3"/>
<feGaussianBlur stdDeviation="3"/>
<feColorMatrix type="matrix" values="0 0 0 0 0 0 0 0 0 0 0 0 0 0 0 0 0 0 0.161 0"/>
<feBlend mode="normal" in2="BackgroundImageFix" result="effect1_dropShadow_83_5650"/>
<feBlend mode="normal" in="SourceGraphic" in2="effect1_dropShadow_83_5650" result="shape"/>
</filter>
</defs>
</svg>
